<?xml version="1.0" encoding="utf-8"?>
<!-- Generator: Adobe Illustrator 24.0.2, SVG Export Plug-In . SVG Version: 6.00 Build 0)  -->
<svg version="1.1" id="Capa_1" xmlns="http://www.w3.org/2000/svg" xmlns:xlink="http://www.w3.org/1999/xlink" x="0px" y="0px"
	 viewBox="0 0 512 400" style="enable-background:new 0 0 512 400;" xml:space="preserve">
<style type="text/css">
	.st0{fill:#202C54;}
</style>
<g>
	<g>
		<path class="st0" d="M485.4,239.4l-42.5-6l-4.5-50.9h27.9v27.1h13.1V176c0-3.7-2.9-6.6-6.5-6.6h-35.6l-1.2-14
			c-1.2-12.6-11.7-22-24.4-22H39.5c-6.5,0-12.7,2.5-17.3,7.1c-4.7,4.6-7.3,10.8-7.3,17.4v180.6c0,3.6,2.9,6.5,6.5,6.5h57.2l0.4,2
			c4,19.8,21.6,34.2,41.8,34.2s37.8-14.3,41.8-34.1l0.4-2h131.8v29.5c0,3.6,2.9,6.5,6.5,6.5h72.3c3.6,0,6.5-2.9,6.5-6.5v-29.5h14.5
			l0.4,2c4.1,19.7,21.6,34.1,41.8,34.1c20.2,0,37.8-14.3,41.8-34.1l0.4-2h21c3.6,0,6.5-2.9,6.5-6.5v-74.4
			C506.6,251.7,497.5,241.1,485.4,239.4z M429.7,232.5h-13.5v-50.2h9.1L429.7,232.5z M120.9,367.9c-16.3,0-29.6-13.3-29.6-29.6
			s13.3-29.6,29.6-29.6s29.6,13.3,29.6,29.6S137.2,367.9,120.9,367.9z M294.8,223.5h-50.1v-41.1h50.1V223.5z M367.1,367.9h-59.2v-23
			h59.2V367.9z M367.1,331.8h-59.2v-23.1h59.2V331.8z M307.9,295.7V182.3h23v113.3h-23V295.7z M367.1,295.7H344V182.3h23.1V295.7z
			 M436.7,367.9c-16.3,0-29.6-13.3-29.6-29.6s13.3-29.6,29.6-29.6s29.6,13.3,29.6,29.6S453.1,367.9,436.7,367.9z M493.5,280.2l-4-3
			c-7.5-5.6-16.3-8.6-25.7-8.6h-60.7v13.1h60.7c16.3,0,29.6,13.3,29.6,29.6v20.6H479l-0.4-2c-4-19.8-21.6-34.2-41.8-34.2
			c-20.2,0-37.8,14.4-41.8,34.2l-0.4,2h-14.4v-156c0-3.6-2.9-6.5-6.5-6.5h-316c-3.6,0-6.5,2.9-6.5,6.5V230c0,3.6,2.9,6.5,6.5,6.5
			h237.2v95.3H163.1l-0.4-2c-4.1-19.8-21.7-34.2-41.8-34.2c-20.2,0-37.8,14.3-41.8,34.1l-0.4,2H28v-174c0-6.3,5.2-11.5,11.5-11.5
			h372.1c5.9,0,10.8,4.4,11.5,10.3l1.1,12.7h-5.4c-8.6,0-15.6,7-15.6,15.6V230c0,8.6,7,15.6,15.6,15.6h17.9l47,6.7
			c5.8,0.8,10,5.8,9.9,11.6v16.3L493.5,280.2L493.5,280.2z M231.7,182.4v41.1h-32.1v-41.1H231.7z M186.5,182.4v41.1h-32.1v-41.1
			H186.5z M141.3,182.4v41.1h-32v-41.1H141.3z M96.3,182.4v41.1H64.1v-41.1H96.3z"/>
		<rect x="51" y="259.6" class="st0" width="220.8" height="13.1"/>
		<rect x="51" y="295.7" class="st0" width="13.1" height="13.1"/>
		<rect x="177.5" y="295.7" class="st0" width="94.3" height="13.1"/>
	</g>
	<circle class="st0" cx="120.9" cy="338.3" r="9"/>
	<circle class="st0" cx="436.7" cy="338.3" r="9"/>
</g>
</svg>
