<?xml version="1.0" encoding="utf-8"?>
<!-- Generator: Adobe Illustrator 24.0.2, SVG Export Plug-In . SVG Version: 6.00 Build 0)  -->
<svg version="1.1" id="Capa_1" xmlns="http://www.w3.org/2000/svg" xmlns:xlink="http://www.w3.org/1999/xlink" x="0px" y="0px"
	 viewBox="0 0 512 400" style="enable-background:new 0 0 512 400;" xml:space="preserve">
<style type="text/css">
	.st0{fill:#45AD34;}
</style>
<g>
	<path class="st0" d="M484.3,180.9h-24.5c-1.4-2.4-2.8-4.7-4.5-7c-0.2-0.4-0.5-0.7-0.8-1c-12.2-15.9-31.4-26.2-53-26.2h-25.4
		c-3.4,0-6.1,2.7-6.1,6.1s2.7,6.1,6.1,6.1h25.4c12.9,0,24.7,4.5,34.1,12h-84.7c-3.1,0-6,1.7-7.5,4.3c-1.5,2.7-1.5,6,0,8.7l46.8,80.5
		c2.9,5,7.6,8.6,13.1,10.2c0.3,0.1,0.6,0.2,0.9,0.3c1.7,0.4,3.5,0.7,5.4,0.7H456v13.6h-10.7c-7.5,0-13.5,6.1-13.5,13.5v15.5
		c0,7.5,6.1,13.5,13.5,13.5H456v18h-33.3L321.8,176.1c-1.8-3.1-5.2-5.1-8.8-5.1H63.1c-5.3,0-9.7,4.3-9.7,9.7v44.9H42.6V159h305
		c3.4,0,6.1-2.7,6.1-6.1s-2.7-6.1-6.1-6.1h-190l-14.6-19c-3.6-4.6-9.2-7.4-15-7.4H75.8c-8.8,0-16,7.2-16,16v10.4h-19
		c-5.7,0-10.3,4.6-10.3,10.3V352c0,5.7,4.6,10.3,10.3,10.3H69c5.6,16,20.9,27.6,38.8,27.6s33.2-11.5,38.8-27.6H171
		c3.4,0,6.1-2.7,6.1-6.1s-2.7-6.1-6.1-6.1h-22.1c0-0.4,0-0.9,0-1.3c0-22.7-18.4-41.1-41.1-41.1s-41.2,18.3-41.2,41
		c0,0.4,0,0.9,0,1.3h-24V237.8h300.8L408.5,350H377c0-0.4,0-0.9,0-1.3c0-22.7-18.4-41.1-41.1-41.1s-41.1,18.4-41.1,41.1
		c0,0.4,0,0.9,0,1.3h-95.2c-3.4,0-6.1,2.7-6.1,6.1s2.7,6.1,6.1,6.1h97.5c5.6,16,20.9,27.6,38.8,27.6s33.2-11.5,38.8-27.6
		c9.7,0,83,0,83.3,0c4.3,0,7.9-2.6,9.5-6.3c0.5-1.2,0.8-2.6,0.8-4V213.5c0-7.1-1.1-13.9-3.2-20.3h19.2c2.1,0,3.8,1.7,3.8,3.8v18.4
		c0,2.7-1,5.3-2.8,7.4l-2.3,2.6c-2.2,2.6-2,6.4,0.6,8.7c1.2,1,2.6,1.5,4,1.5c1.7,0,3.4-0.7,4.6-2.1l2.3-2.6
		c3.7-4.3,5.8-9.8,5.8-15.4V197C500.3,188.1,493.1,180.9,484.3,180.9L484.3,180.9z M456,319.7h-10.7c-0.7,0-1.3-0.6-1.3-1.3v-15.5
		c0-0.7,0.6-1.3,1.3-1.3H456V319.7z M72,136.4c0-2.1,1.7-3.8,3.8-3.8h52.1c2.1,0,4,1,5.3,2.6l8.9,11.5H72V136.4z M107.7,319.8
		c15.9,0,28.9,12.9,28.9,28.9s-12.9,28.9-28.9,28.9s-28.9-12.9-28.9-28.9S91.8,319.8,107.7,319.8z M166.8,183.3h102.1v42.3H166.8
		V183.3z M154.5,225.6h-50.7v-42.3h50.7V225.6z M65.6,183.3h25.9v42.3H65.6V183.3z M281.2,225.6v-42.3h30.6l24.5,42.3H281.2z
		 M335.9,377.6c-15.9,0-28.9-12.9-28.9-28.9s12.9-28.9,28.9-28.9c15.9,0,28.9,12.9,28.9,28.9S351.8,377.6,335.9,377.6z M357.2,183.3
		h42v72.3L357.2,183.3z M411.4,263.4v-80.1h35.5c5.8,8.7,9.2,19,9.2,30.2v49.9H411.4L411.4,263.4z"/>
	<path class="st0" d="M107.7,367.4c10.3,0,18.7-8.4,18.7-18.7c0-10.3-8.4-18.7-18.7-18.7S89,338.4,89,348.7
		C89.1,359,97.4,367.4,107.7,367.4z M107.7,342.3c3.5,0,6.4,2.9,6.4,6.4s-2.9,6.4-6.4,6.4s-6.4-2.9-6.4-6.4S104.2,342.3,107.7,342.3
		z"/>
	<path class="st0" d="M335.9,330c-10.3,0-18.7,8.4-18.7,18.7c0,10.3,8.4,18.7,18.7,18.7c10.3,0,18.7-8.4,18.7-18.7
		S346.2,330,335.9,330z M335.9,355.1c-3.5,0-6.4-2.9-6.4-6.4s2.9-6.4,6.4-6.4s6.4,2.9,6.4,6.4S339.4,355.1,335.9,355.1z"/>
</g>
</svg>
