<?xml version="1.0" encoding="utf-8"?>
<!-- Generator: Adobe Illustrator 24.0.2, SVG Export Plug-In . SVG Version: 6.00 Build 0)  -->
<svg version="1.1" id="Capa_1" xmlns="http://www.w3.org/2000/svg" xmlns:xlink="http://www.w3.org/1999/xlink" x="0px" y="0px"
	 viewBox="0 0 512 512" style="enable-background:new 0 0 512 512;" xml:space="preserve">
<style type="text/css">
	.st0{fill:#202C54;}
</style>
<g id="Outline">
	<path class="st0" d="M154.8,381c-13.2,0-23.8,10.7-23.8,23.8c0,13.2,10.7,23.8,23.8,23.8c13.2,0,23.8-10.7,23.8-23.8
		C178.6,391.6,168,381,154.8,381z M154.8,416.7c-6.5,0-11.9-5.3-11.9-11.9c0-6.5,5.3-11.9,11.9-11.9s11.9,5.3,11.9,11.9
		C166.7,411.3,161.4,416.7,154.8,416.7z"/>
	<path class="st0" d="M357.2,381c-13.2,0-23.8,10.7-23.8,23.8c0,13.2,10.7,23.8,23.8,23.8c13.2,0,23.8-10.7,23.8-23.8
		C380.9,391.6,370.3,381,357.2,381z M357.2,416.7c-6.5,0-11.9-5.3-11.9-11.9c0-6.5,5.3-11.9,11.9-11.9s11.9,5.3,11.9,11.9
		C369.1,411.3,363.7,416.7,357.2,416.7z"/>
	<path class="st0" d="M190.6,386.9h130.9v11.9H190.6V386.9z"/>
	<path class="st0" d="M190.6,410.7h130.9v11.9H190.6V410.7z"/>
	<path class="st0" d="M422.6,250h-17.9v-65.4c0-23-18.7-41.6-41.6-41.6H148.9c-23,0-41.6,18.7-41.6,41.6v23.8h142.8v142.8h-47.4
		l23.6-26.1v14.3h11.9v-59.5h-11.9v27.4l-39.5,43.9h-67.6V226.8h-11.9V250H89.4c-6.5,0-11.9,5.3-11.9,11.9v59.5
		c0,6.5,5.3,11.9,11.9,11.9h17.9v101.2c0,7.6,4.8,14.3,11.9,16.9V488c0,6.5,5.3,11.9,11.9,11.9h35.7c6.5,0,11.9-5.3,11.9-11.9v-35.7
		h202.3V488h-35.7V470h-11.8V488c0,6.5,5.3,11.9,11.9,11.9h35.7c6.5,0,11.9-5.3,11.9-11.9v-36.7c7.1-2.5,11.9-9.3,11.9-16.9V333.4
		h17.9c6.5,0,11.9-5.3,11.9-11.9V262C434.5,255.4,429.2,250,422.6,250z M119.1,184.6c0-16.4,13.3-29.7,29.7-29.7h214.3
		c16.4,0,29.7,13.3,29.7,29.7v11.9H119.1V184.6z M261.9,208.4h130.9v142.8h-67.6l-39.5-43.9v-27.4h-11.9v59.5h11.9v-14.3l23.6,26.1
		h-47.4V208.4z M89.4,321.5V262h17.9v59.5H89.4z M166.7,488.1h-35.7v-35.7h35.7V488.1z M386.9,440.5H125.1c-3.3,0-5.9-2.7-5.9-5.9
		v-71.4h56.8l-1.8,2l8.9,8l8.9-9.9h128l8.9,10l8.9-8l-1.8-2h56.8v71.4C392.9,437.8,390.2,440.5,386.9,440.5z M422.6,321.5h-17.9V262
		h17.9V321.5L422.6,321.5z"/>
	<path class="st0" d="M250.1,166.7h11.9v11.9h-11.9L250.1,166.7L250.1,166.7z"/>
	<path class="st0" d="M273.9,166.7h11.9v11.9h-11.9V166.7z"/>
	<path class="st0" d="M226.2,166.7h11.9v11.9h-11.9V166.7z"/>
	<path class="st0" d="M142.9,166.7h11.9v11.9h-11.9V166.7z"/>
	<path class="st0" d="M357.2,166.7h11.9v11.9h-11.9V166.7z"/>
</g>
</svg>
