<?xml version="1.0" encoding="utf-8"?>
<!-- Generator: Adobe Illustrator 24.0.2, SVG Export Plug-In . SVG Version: 6.00 Build 0)  -->
<svg version="1.1" id="Capa_1" xmlns="http://www.w3.org/2000/svg" xmlns:xlink="http://www.w3.org/1999/xlink" x="0px" y="0px"
	 viewBox="0 0 512 512" style="enable-background:new 0 0 512 512;" xml:space="preserve">
<style type="text/css">
	.st0{fill:#0F1A46;}
	.st1{fill:#222C55;}
	.st2{fill:#FEDBA6;}
	.st3{fill:#FFEFD2;}
	.st4{fill:#159000;}
	.st5{fill:#45AC34;}
	.st6{fill:#883F2E;}
	.st7{fill:#A44F3E;}
</style>
<g>
	<g>
		<path class="st0" d="M329.4,53.1h-283l3.8-29c1.2-9.5,9.3-16.5,18.9-16.5h237.6c9.5,0,17.6,7.1,18.9,16.5L329.4,53.1z"/>
		<path class="st1" d="M292.2,53.1H46.4l3.8-29c1.2-9.5,9.3-16.5,18.9-16.5h200.5c9.5,0,17.6,7.1,18.9,16.5L292.2,53.1z"/>
		<path class="st0" d="M362.3,136.5H13.5l6.1-68.9c0.7-8.2,7.6-14.4,15.8-14.4h305c8.2,0,15,6.3,15.8,14.4L362.3,136.5z"/>
		<path class="st1" d="M325.1,136.5H13.5l6.1-68.9c0.7-8.2,7.6-14.4,15.8-14.4h267.8c8.2,0,15,6.3,15.8,14.4L325.1,136.5z"/>
		<path class="st2" d="M345.6,136.5l-38.4,352.4c-1,8.8-8.4,15.5-17.2,15.5H85.9c-8.9,0-16.3-6.7-17.3-15.5L30.2,136.5H345.6z"/>
		<path class="st3" d="M309,136.5l-38.4,352.4c-1,8.8-8.4,15.5-17.2,15.5H85.9c-8.9,0-16.3-6.7-17.3-15.5L30.2,136.5H309z"/>
		<path class="st4" d="M338.2,204.1l-20.7,189.1l-3.2,29.6H61.5l-3.2-29.6L37.6,204.1L338.2,204.1z"/>
		<path class="st5" d="M301.7,204.1L281,393.3l-3.2,29.6H61.5l-3.2-29.6L37.6,204.1L301.7,204.1z"/>
		<path class="st6" d="M234.7,334.8l-22.1,23.8c-9.6,10.3-22.6,15.5-35.7,15.5c-5.8,0-11.6-1-17.1-3.1c-5.8-2.2-11.3-5.5-16.1-10
			c-19.7-18.3-20.8-49.2-2.5-68.9l22.1-23.8c5.3-5.7,11.7-9.9,18.6-12.4c16.8-6.3,36.4-3.1,50.4,10
			C251.9,284.2,253,315.1,234.7,334.8L234.7,334.8z"/>
		<path class="st7" d="M200.3,334.8l-22.1,23.8c-5.3,5.7-11.7,9.9-18.5,12.4c-5.8-2.2-11.3-5.5-16.1-10
			c-19.7-18.3-20.8-49.2-2.5-68.9l22.1-23.8c5.3-5.7,11.7-9.9,18.6-12.4c5.8,2.2,11.2,5.5,16.1,10
			C217.6,284.2,218.7,315.1,200.3,334.8z"/>
	</g>
	<g>
		<path d="M368.9,135.8l-6.1-68.9c-1.1-12.2-11.1-21.4-23.3-21.4h-4.3l-2.9-22.3C330.5,10,319.1,0,305.8,0H68.2
			C54.9,0,43.5,10,41.8,23.2l-2.9,22.3h-4.3c-12.2,0-22.3,9.2-23.3,21.4l-6.1,68.9c-0.9,9.9,11.3,8.3,17.5,8.3l37.7,345.7
			C61.6,502.4,72.3,512,85,512h122.4c4.2,0,7.6-3.4,7.6-7.6s-3.4-7.6-7.6-7.6H85c-5,0-9.2-3.7-9.7-8.7L69,430.4H305l-6.3,57.7
			c-0.5,5-4.7,8.7-9.7,8.7h-42.1c-4.2,0-7.6,3.4-7.6,7.6s3.4,7.6,7.6,7.6H289c12.8,0,23.4-9.6,24.8-22.3l37.7-345.7
			C357.7,144.1,369.8,145.7,368.9,135.8L368.9,135.8z M306.6,415.2H67.4L45.2,211.7h283.6L306.6,415.2z M330.5,196.5H43.5l-5.7-52.4
			h298.4L330.5,196.5z M20.9,128.9l5.4-60.7c0.4-4.3,3.9-7.5,8.2-7.5h59c4.2,0,7.6-3.4,7.6-7.6s-3.4-7.6-7.6-7.6H54.2l2.7-20.4
			c0.7-5.7,5.6-9.9,11.3-9.9h237.6c5.7,0,10.6,4.3,11.3,9.9l2.7,20.4H134.1c-4.2,0-7.6,3.4-7.6,7.6s3.4,7.6,7.6,7.6h205.4
			c4.3,0,7.8,3.2,8.2,7.5l5.4,60.7L20.9,128.9z"/>
		<path d="M236.5,260.3c-11-10.3-25.4-15.6-40.4-15.1c-15,0.5-29,6.9-39.2,17.9L134.7,287c-10.3,11-15.6,25.4-15.1,40.4
			c0.5,15,6.9,29,17.9,39.2c0,0,0,0,0,0c0,0,0,0,0,0c10.8,10.1,24.6,15.1,38.4,15.1c15.1,0,30.2-6,41.3-17.9l22.2-23.8
			C260.5,317.2,259.2,281.5,236.5,260.3z M228.2,329.6L206,353.4c-13.7,14.7-35.7,17.1-52.1,6.7l33.9-36.4c2.9-3.1,2.7-7.9-0.4-10.7
			c-3.1-2.9-7.9-2.7-10.7,0.4l-33.9,36.4c-4.9-6.6-7.7-14.5-8-23c-0.4-11,3.5-21.5,11-29.5l22.2-23.8c7.5-8,17.7-12.7,28.7-13.1
			c0.5,0,1,0,1.5,0c7.9,0,15.4,2.2,22,6.4L201.2,287c-2.9,3.1-2.7,7.9,0.4,10.7c1.5,1.4,3.3,2,5.2,2c2,0,4.1-0.8,5.6-2.4l18.8-20.2
			C242.7,292.8,241.9,314.9,228.2,329.6L228.2,329.6z"/>
	</g>
</g>
</svg>
