<?xml version="1.0" encoding="utf-8"?>
<!-- Generator: Adobe Illustrator 24.0.2, SVG Export Plug-In . SVG Version: 6.00 Build 0)  -->
<svg version="1.1" id="Capa_1" xmlns="http://www.w3.org/2000/svg" xmlns:xlink="http://www.w3.org/1999/xlink" x="0px" y="0px"
	 viewBox="0 0 496 400" style="enable-background:new 0 0 496 400;" xml:space="preserve">
<style type="text/css">
	.st0{fill:#202C54;}
</style>
<path class="st0" d="M130.8,321.1c-11.4,0-20.7,9.3-20.7,20.7c0,11.4,9.3,20.7,20.7,20.7s20.7-9.3,20.7-20.7
	C151.5,330.3,142.2,321.1,130.8,321.1z M130.8,348.6c-3.8,0-6.9-3.1-6.9-6.9s3.1-6.9,6.9-6.9s6.9,3.1,6.9,6.9
	S134.6,348.6,130.8,348.6z"/>
<path class="st0" d="M303.1,321.1c-11.4,0-20.7,9.3-20.7,20.7c0,11.4,9.3,20.7,20.7,20.7c11.4,0,20.7-9.3,20.7-20.7
	C323.8,330.3,314.5,321.1,303.1,321.1z M303.1,348.6c-3.8,0-6.9-3.1-6.9-6.9s3.1-6.9,6.9-6.9s6.9,3.1,6.9,6.9
	S306.9,348.6,303.1,348.6z"/>
<path class="st0" d="M385.9,321.1c-11.4,0-20.7,9.3-20.7,20.7c0,11.4,9.3,20.7,20.7,20.7c11.4,0,20.7-9.3,20.7-20.7
	C406.5,330.3,397.3,321.1,385.9,321.1z M385.9,348.6c-3.8,0-6.9-3.1-6.9-6.9s3.1-6.9,6.9-6.9s6.9,3.1,6.9,6.9
	S389.7,348.6,385.9,348.6z"/>
<path class="st0" d="M461.7,279.7V114.3H186v165.4h27.6v13.8h-41.4V190.1c0-11.4-9.3-20.7-20.7-20.7H96.4c-34.2,0-62,27.8-62,62
	v82.7c0,19,15.5,34.5,34.5,34.5h14.3c3.4,23.3,23.4,41.4,47.7,41.4s44.3-18,47.7-41.4h76.9c3.4,23.3,23.4,41.4,47.7,41.4
	c17.6,0,32.9-9.5,41.4-23.5C353,380.6,368.4,390,386,390c24.3,0,44.3-18,47.7-41.4h7.4c11.4,0,20.7-9.3,20.7-20.7v-13.8
	c0-11.4-9.3-20.7-20.7-20.7h-6.9v-13.8h27.5V279.7z M199.7,128.1h248.1V266H199.7V128.1z M164.5,307.3h104.9
	c-7.4,7.2-12.4,16.8-14,27.6h-76.9C177,324.1,171.9,314.5,164.5,307.3z M151.5,183.2c3.8,0,6.9,3.1,6.9,6.9v103.4H48.1v-27.6h62
	c19,0,34.5-15.5,34.5-34.5V197h-82c8.7-8.5,20.6-13.8,33.7-13.8H151.5z M52.8,210.8h78v20.7c0,11.4-9.3,20.7-20.7,20.7h-62v-20.7
	C48.1,224,49.8,217.1,52.8,210.8z M48.1,314.2v-6.9h49c-7.4,7.2-12.4,16.8-14,27.6H68.8C57.4,334.9,48.1,325.6,48.1,314.2z
	 M130.8,376.2c-19,0-34.5-15.5-34.5-34.5s15.5-34.5,34.5-34.5s34.5,15.5,34.5,34.5C165.3,360.8,149.8,376.2,130.8,376.2z
	 M303.1,376.2c-19,0-34.5-15.5-34.5-34.5s15.5-34.5,34.5-34.5s34.5,15.5,34.5,34.5C337.6,360.8,322.1,376.2,303.1,376.2z
	 M336.8,307.3h15.3c-3,2.9-5.5,6.2-7.7,9.7C342.4,313.5,339.8,310.2,336.8,307.3z M385.9,376.2c-19,0-34.5-15.5-34.5-34.5
	s15.5-34.5,34.5-34.5s34.5,15.5,34.5,34.5C420.3,360.8,404.9,376.2,385.9,376.2z M447.9,314.2V328c0,3.8-3.1,6.9-6.9,6.9h-7.4
	c-1.5-10.7-6.6-20.3-14-27.6H441C444.8,307.3,447.9,310.4,447.9,314.2z M420.3,293.5h-193v-13.8h193V293.5z"/>
<path class="st0" d="M213.5,238.4h13.8v13.8h-13.8V238.4z"/>
<path class="st0" d="M213.5,169.4h13.8v55.1h-13.8V169.4z"/>
<path class="st0" d="M213.5,141.9h13.8v13.8h-13.8V141.9z"/>
<path class="st0" d="M254.9,238.4h13.8v13.8h-13.8L254.9,238.4L254.9,238.4z"/>
<path class="st0" d="M254.9,169.4h13.8v55.1h-13.8L254.9,169.4L254.9,169.4z"/>
<path class="st0" d="M254.9,141.9h13.8v13.8h-13.8L254.9,141.9L254.9,141.9z"/>
<path class="st0" d="M296.3,238.4H310v13.8h-13.8L296.3,238.4L296.3,238.4z"/>
<path class="st0" d="M296.3,169.4H310v55.1h-13.8L296.3,169.4L296.3,169.4z"/>
<path class="st0" d="M296.3,141.9H310v13.8h-13.8L296.3,141.9L296.3,141.9z"/>
<path class="st0" d="M337.6,238.4h13.8v13.8h-13.8V238.4z"/>
<path class="st0" d="M337.6,169.4h13.8v55.1h-13.8V169.4z"/>
<path class="st0" d="M337.6,141.9h13.8v13.8h-13.8V141.9z"/>
<path class="st0" d="M379,238.4h13.8v13.8H379V238.4z"/>
<path class="st0" d="M379,169.4h13.8v55.1H379V169.4z"/>
<path class="st0" d="M379,141.9h13.8v13.8H379V141.9z"/>
<path class="st0" d="M420.3,238.4h13.8v13.8h-13.8V238.4z"/>
<path class="st0" d="M420.3,169.4h13.8v55.1h-13.8V169.4z"/>
<path class="st0" d="M420.3,141.9h13.8v13.8h-13.8V141.9z"/>
</svg>
