<?xml version="1.0" encoding="utf-8"?>
<!-- Generator: Adobe Illustrator 24.0.2, SVG Export Plug-In . SVG Version: 6.00 Build 0)  -->
<svg version="1.1" id="Capa_1" xmlns="http://www.w3.org/2000/svg" xmlns:xlink="http://www.w3.org/1999/xlink" x="0px" y="0px"
	 viewBox="0 0 512 400" style="enable-background:new 0 0 512 400;" xml:space="preserve">
<style type="text/css">
	.st0{fill:#202C54;}
</style>
<g>
	<path class="st0" d="M405,290.8c-18.3,0-33.1,14.9-33.1,33.1S386.8,357,405,357s33.1-14.9,33.1-33.1
		C438.1,305.7,423.3,290.8,405,290.8z M405,342.1c-10,0-18.1-8.1-18.1-18.1s8.1-18.1,18.1-18.1s18.1,8.1,18.1,18.1
		S415,342.1,405,342.1z"/>
	<path class="st0" d="M85.3,290.8c-18.3,0-33.1,14.9-33.1,33.1S67.1,357,85.3,357s33.1-14.9,33.1-33.1S103.6,290.8,85.3,290.8z
		 M85.3,342.1c-10,0-18.1-8.1-18.1-18.1s8.1-18.1,18.1-18.1s18.1,8.1,18.1,18.1S95.3,342.1,85.3,342.1z"/>
	<path class="st0" d="M0,320.2v8.1c0,9.1,7.4,16.4,16.4,16.4h13.9c8.4,22.2,29.9,38,55,38s46.6-15.8,55-38h73.2
		c4.1,0,7.5-3.4,7.5-7.5s-3.4-7.5-7.5-7.5h-69.6c0.4-3.7,0.4-7.4,0.1-11h202.6c-0.3,3.5-0.3,7.3,0.1,11h-98c-4.1,0-7.5,3.4-7.5,7.5
		s3.4,7.5,7.5,7.5H350c8.4,22.2,29.9,38,55,38s46.6-15.8,55-38h35.6c9.1,0,16.4-7.4,16.4-16.4v-8.1c0-6.5-3.8-12.1-9.3-14.8v-23.2
		c0-23.7-16.6-44.5-40.3-49.4L388,217.6c-0.6-0.1-1.2-0.3-1.7-0.4c-2.2-8.9-10.2-15.5-19.8-15.5h-1l-23-19.8
		c-3.1-2.7-7.9-2.4-10.6,0.8c-2.7,3.1-2.4,7.9,0.8,10.6l12.7,10.9c-3.6,2-6.5,5-8.3,8.5l-34.8-29.9c-7.9-6.8-17.5-11.7-27.6-14
		c-57.2-13.2-121.4-11.8-179.5,7.8c-13.9,4.7-25.9,14.1-33.8,26.4c-3.1,4.8-2.2,11.3,2.2,15.1l30.8,26.8c2.1,1.9,4.9,2.9,7.7,2.9
		h238.8c3.8,3.8,9,6,14.4,6h11.3c11.2,0,20.4-9.1,20.4-20.4v-0.7l65.7,13.4v21.8c0,11.5,9.3,20.8,20.8,20.8h14.4v15.1h-27.5
		c-8.4-23.2-30.6-38.6-55.2-38.6s-46.8,15.3-55.2,38.6H140.5c-8.5-23.3-30.7-38.6-55.2-38.6s-46.8,15.3-55.2,38.6h-7.9l-1.8-6.6
		c-1.1-3.9-1.6-7.9-1.6-11.9v-5.1h7.5c11.2,0,20.4-9.1,20.4-20.4v-6.6c0-10.7-8.2-19.4-18.7-20.3l23.4-36.3
		c9.4-14.5,23.6-25.6,40-31.2c78-26.4,150-16.4,186-8.2c10.6,2.4,20.3,7,29,13.6c3.3,2.5,8,1.9,10.5-1.4s1.9-8-1.4-10.5
		c-10.4-7.9-22.1-13.4-34.7-16.3c-37.5-8.6-112.6-19-194.2,8.6C66.9,157.8,50,171,38.8,188.4L13.3,228c-6.2,9.7-9.6,21-9.6,32.6
		v12.1v12.6c0,5.3,0.7,10.7,2.1,15.8l1.5,5.4C2.9,309.5,0,314.5,0,320.2L0,320.2z M292.5,194.1l42.3,36.4v2.2h-96.4v-55.2
		c13,1.6,24.1,3.7,32.9,5.8C279.1,185.2,286.4,188.9,292.5,194.1L292.5,194.1z M75.6,208.7c11.2-15.4,26.3-19.4,47.5-24.6l8.3,48.7
		h-28.1L75.6,208.7z M146.6,232.8l-8.8-52c44.9-8.8,79.1-4.8,85.7-4.7v56.7H146.6z M366.5,238.8h-11.3c-3.2,0-5.4-2.7-5.4-5.4
		c0-4.2,0-7.1,0-11.3c0-3,2.4-5.4,5.4-5.4h11.3c3,0,5.4,2.4,5.4,5.4v11.3C371.8,236.3,369.4,238.8,366.5,238.8z M405,367.7
		c-24.3,0-43.8-19.9-43.8-43.8c0-23.8,19.4-43.8,43.8-43.8s43.8,20,43.8,43.8C448.8,347.9,429.3,367.7,405,367.7z M467.5,267.9
		v-17.6c9.5,4.6,16.5,13.2,19.1,23.4h-13.3C470.1,273.7,467.5,271.1,467.5,267.9L467.5,267.9z M495.2,318.8h0.4
		c0.8,0,1.4,0.6,1.4,1.4v8.1c0,0.8-0.6,1.4-1.4,1.4h-32.1c0.4-3.8,0.4-7.5,0.1-11L495.2,318.8z M85.3,367.7
		c-24.3,0-43.8-19.9-43.8-43.8c0-24.1,19.6-43.8,43.8-43.8c24.1,0,43.8,19.6,43.8,43.8C129.1,348,109.6,367.7,85.3,367.7z
		 M26.7,318.8c-0.3,3.6-0.3,7.4,0.1,11H16.4c-0.8,0-1.4-0.6-1.4-1.4v-8.1c0-0.8,0.6-1.4,1.4-1.4L26.7,318.8L26.7,318.8z M31.7,253.1
		v6.6c0,3-2.4,5.4-5.4,5.4h-7.5c0.1-2.7-0.6-9.1,1.8-17.4h5.7C29.3,247.8,31.7,250.2,31.7,253.1z"/>
	<path class="st0" d="M262.6,276.2c4.1,0,7.5-3.4,7.5-7.5s-3.4-7.5-7.5-7.5h-9.4c-4.1,0-7.5,3.4-7.5,7.5s3.4,7.5,7.5,7.5H262.6z"/>
	<path class="st0" d="M168.6,276.2c4.1,0,7.5-3.4,7.5-7.5s-3.4-7.5-7.5-7.5h-9.4c-4.1,0-7.5,3.4-7.5,7.5s3.4,7.5,7.5,7.5H168.6z"/>
</g>
</svg>
