<?xml version="1.0" encoding="utf-8"?>
<!-- Generator: Adobe Illustrator 24.0.2, SVG Export Plug-In . SVG Version: 6.00 Build 0)  -->
<svg version="1.1" id="Capa_1" xmlns="http://www.w3.org/2000/svg" xmlns:xlink="http://www.w3.org/1999/xlink" x="0px" y="0px"
	 viewBox="0 0 512 400" style="enable-background:new 0 0 512 400;" xml:space="preserve">
<style type="text/css">
	.st0{fill:#45AD34;}
</style>
<g>
	<path class="st0" d="M454.9,211.4c-0.4,0-0.6,0-0.8,0l-0.6-0.1l-0.1-0.6c-2.9-12.5-13.4-22.2-26-24.1L383,180
		c-1.8-0.3-3.7,0.3-5.1,1.5c-1.4,1.2-2.2,2.9-2.2,4.8v71c0,3.5,2.8,6.3,6.3,6.3s6.3-2.8,6.3-6.3V224H434v55.5
		c0,6.7,5.4,12.1,12.1,12.1h46.1v14h-4.4c-3.5,0-6.3,2.8-6.3,6.3s2.8,6.3,6.3,6.3h4.4v28.3h-18.4l-0.2-0.7
		c-4.1-15-17.8-25.4-33.3-25.4s-29.2,10.4-33.3,25.4l-0.2,0.7h-18.4v-60.1c0-3.5-2.8-6.3-6.3-6.3s-6.3,2.8-6.3,6.3v33.2h-14.2V193.2
		c0-7.4-6-13.4-13.4-13.4H86.3c-3.5,0-6.3,2.8-6.3,6.3s2.8,6.3,6.3,6.3h262.6v127.1H35.5V192.5h21.6c3.5,0,6.3-2.8,6.3-6.3
		s-2.8-6.3-6.3-6.3H36.2c-7.4,0-13.4,6-13.4,13.4v126.4h-9.3c-3.5,0-6.3,2.8-6.3,6.3v18.7c0,8,6.5,14.6,14.6,14.6h7.8v6.5h-16
		c-3.5,0-6.3,2.8-6.3,6.3s2.8,6.3,6.3,6.3h22.3c3.5,0,6.3-2.8,6.3-6.3v-12.8H52l0.1,0.9c2.5,16.7,17.2,29.4,34.1,29.4
		c16.9,0,31.6-12.6,34.1-29.4l0.1-0.9h29c3.5,0,6.3-2.8,6.3-6.3s-2.8-6.3-6.3-6.3h-29.7l-0.2-0.7c-1.2-4.3-3.2-8.4-5.9-11.9
		l-1.2-1.6h137.9l-1.2,1.6c-2.8,3.6-4.8,7.6-5.9,11.9l-0.2,0.7h-64.1c-3.5,0-6.3,2.8-6.3,6.3s2.8,6.3,6.3,6.3h63.4l0.1,0.9
		c2.5,16.7,17.2,29.4,34.1,29.4s31.6-12.6,34.1-29.4l0.1-0.9H406l0.1,0.9c2.5,16.7,17.2,29.4,34.1,29.4c16.9,0,31.6-12.6,34.1-29.4
		l0.1-0.9h17.7c6.9,0,12.6-5.6,12.6-12.6v-75.4c0-5.1-1.5-7-11-19.3c-5.6-7.2-14-18-26.3-35C463.2,211.1,456.9,211.3,454.9,211.4z
		 M388.4,211.4v-17.8l37,5.5c6.3,0.9,11.7,5,14.4,10.9l0.6,1.4H388.4z M58.9,333.9c-2.8,3.6-4.8,7.6-5.9,11.9l-0.2,0.7h-31
		c-1.1,0-1.9-0.9-1.9-1.9v-12.3h40.3L58.9,333.9z M86.2,376.7c-12.1,0-21.9-9.8-21.9-21.9c0-0.5,0-0.9,0-1.4l0-0.1
		C65.2,342,74.8,333,86.2,333c11.5,0,21,8.9,21.8,20.4l0,0l0,0.1c0,0.4,0,0.9,0,1.4C108.1,366.9,98.3,376.7,86.2,376.7z
		 M276.3,376.7c-12.1,0-21.9-9.8-21.9-21.9c0-0.5,0-0.9,0-1.4l0-0.1c0.8-11.4,10.3-20.4,21.8-20.4c11.5,0,21,8.9,21.8,20.4l0,0
		l0,0.1c0,0.4,0,0.9,0,1.4C298.2,366.9,288.4,376.7,276.3,376.7z M375.8,346.5h-66l-0.2-0.7c-1.2-4.3-3.2-8.4-5.9-11.9l-1.2-1.6
		h73.4V346.5z M440.3,376.7c-12.1,0-21.9-9.8-21.9-21.9s9.8-21.9,21.9-21.9s21.9,9.8,21.9,21.9S452.3,376.7,440.3,376.7z
		 M492.1,271.2v7.7h-45.5V224l9.8,0c0.4,0,0.8,0.2,1,0.5l34.5,45.9C492.1,270.7,492.1,270.9,492.1,271.2z"/>
	<path class="st0" d="M76.5,302.2c3.5,0,6.3-2.8,6.3-6.3v-79.7c0-3.5-2.8-6.3-6.3-6.3c-3.5,0-6.3,2.8-6.3,6.3v79.7
		C70.1,299.4,73,302.2,76.5,302.2z"/>
	<path class="st0" d="M140.6,295.9v-79.7c0-3.5-2.8-6.3-6.3-6.3c-3.5,0-6.3,2.8-6.3,6.3v79.7c0,3.5,2.8,6.3,6.3,6.3
		C137.8,302.2,140.6,299.4,140.6,295.9z"/>
	<path class="st0" d="M256.4,295.9v-79.7c0-3.5-2.8-6.3-6.3-6.3c-3.5,0-6.3,2.8-6.3,6.3v79.7c0,3.5,2.8,6.3,6.3,6.3
		C253.6,302.2,256.4,299.4,256.4,295.9z"/>
	<path class="st0" d="M314.3,216.2c0-3.5-2.8-6.3-6.3-6.3s-6.3,2.8-6.3,6.3v79.7c0,3.5,2.8,6.3,6.3,6.3s6.3-2.8,6.3-6.3V216.2z"/>
	<path class="st0" d="M159.5,286.6l4.6,4.7c8.8,9,23.3,9.2,32.4,0.4l24.8-24.1c3.4-3.3,5.4-8,5.4-12.9c0-4.8-2-9.4-5.6-12.9
		l-24.6-24c-4.3-4.2-9.9-6.5-15.9-6.5c-0.1,0-0.2,0-0.3,0c-6.1,0.1-11.8,2.5-16.1,6.9l-4.6,4.7c-1.2,1.2-1.8,2.8-1.8,4.5
		s0.7,3.3,1.9,4.4l23.5,22.8l-23.5,22.8C157.2,280.1,157.1,284.1,159.5,286.6z M196.6,259.3c1.2-1.2,1.9-2.8,1.9-4.5
		c0-1.7-0.7-3.3-1.9-4.5l-23.6-23l0.8-0.7c4-3.5,10.1-3.4,13.9,0.3l24.6,24c1.1,1.1,1.7,2.5,1.7,3.9c0,1.4-0.6,2.8-1.6,3.8
		l-24.8,24.1c-2,1.9-4.6,2.9-7.2,2.9c-2.4,0-4.8-0.8-6.8-2.5l-0.8-0.7L196.6,259.3z"/>
</g>
</svg>
