<?xml version="1.0" encoding="utf-8"?>
<!-- Generator: Adobe Illustrator 24.0.2, SVG Export Plug-In . SVG Version: 6.00 Build 0)  -->
<svg version="1.1" id="Capa_1" xmlns="http://www.w3.org/2000/svg" xmlns:xlink="http://www.w3.org/1999/xlink" x="0px" y="0px"
	 viewBox="0 0 512 512" style="enable-background:new 0 0 512 512;" xml:space="preserve">
<style type="text/css">
	.st0{fill:#45AD34;stroke:#45AD34;stroke-miterlimit:10;}
</style>
<g>
	<path class="st0" d="M383.6,313.1H366c-4.4,0-8.5,1.7-11.5,4.5l-4.8-18.7l-6.1-23.9c-2-7.7-8.9-13-16.8-13H185.2
		c-7.9,0-14.8,5.4-16.8,13l-6.1,23.9l-4.8,18.7c-3-2.8-7.1-4.5-11.5-4.5h-17.7c-9.4,0-17.1,7.7-17.1,17.1c0,9.4,7.7,17.1,17.1,17.1
		H143c-5.8,6.3-9.4,14.7-9.4,23.9v88.2h13.8v41.1H197v-41.1h118v41.1h49.6v-41.1h13.8v-88.2c0-9.2-3.6-17.6-9.4-23.9h14.6
		c9.4,0,17.1-7.7,17.1-17.1C400.7,320.8,393,313.1,383.6,313.1z M185.2,271.3h141.7c3.6,0,6.8,2.5,7.7,6l3.1,12.2H174.4l3.1-12.2
		C178.4,273.8,181.5,271.3,185.2,271.3z M340,298.9l9.4,36.9H162.6l9.4-36.9H340z M120.7,330.2c0-4.2,3.5-7.7,7.7-7.7H146
		c4.2,0,7.7,3.5,7.7,7.7c0,4.2-3.5,7.7-7.7,7.7h-17.7C124.1,337.9,120.7,334.4,120.7,330.2z M187.6,491h-30.8v-31.7h30.8V491z
		 M355.2,491h-30.8v-31.7h30.8V491z M369,450H143v-25.7h226V450z M369,414.9H143v-43.8c0-14.3,11.7-26,26-26h174
		c14.3,0,26,11.7,26,26V414.9L369,414.9z M383.6,337.9H366c-4.2,0-7.7-3.5-7.7-7.7c0-4.2,3.5-7.7,7.7-7.7h17.7
		c4.2,0,7.7,3.5,7.7,7.7C391.4,334.4,387.9,337.9,383.6,337.9z"/>
	<path class="st0" d="M212.1,379.8c-1.6-6.6-7.5-11.3-14.3-11.3h-30.4c-4.6,0-8.8,2.1-11.6,5.6c-2.8,3.6-3.8,8.2-2.7,12.6l1.7,6.9
		c1.6,6.6,7.5,11.3,14.3,11.3h30.4c4.6,0,8.8-2.1,11.6-5.6c2.8-3.6,3.8-8.2,2.7-12.6L212.1,379.8z M203.7,393.6
		c-1,1.3-2.6,2.1-4.2,2.1h-30.4c-2.5,0-4.6-1.7-5.2-4.1l-1.7-6.9c-0.4-1.6,0-3.3,1-4.6c1-1.3,2.6-2.1,4.2-2.1h30.4
		c2.5,0,4.6,1.7,5.2,4.1l1.7,6.9C205.1,390.6,204.7,392.3,203.7,393.6z"/>
	<path class="st0" d="M344.6,368.6h-30.4c-6.8,0-12.7,4.6-14.3,11.3l-1.7,6.9c-1.1,4.4-0.1,9,2.7,12.6c2.8,3.6,7.1,5.6,11.6,5.6
		h30.4c6.8,0,12.7-4.6,14.3-11.3l1.7-6.9c1.1-4.4,0.1-9-2.7-12.6S349.2,368.6,344.6,368.6z M349.8,384.6l-1.7,6.9
		c-0.6,2.4-2.7,4.1-5.2,4.1h-30.4c-1.7,0-3.2-0.7-4.2-2.1c-1-1.3-1.4-3-1-4.6l1.7-6.9c0.6-2.4,2.7-4.1,5.2-4.1h30.4
		c1.7,0,3.2,0.8,4.2,2.1C349.9,381.3,350.2,383,349.8,384.6z"/>
	<path class="st0" d="M224.5,405h63l9.4-36.5h-81.8L224.5,405z M284.8,377.9l-4.6,17.7h-48.4l-4.6-17.7H284.8z"/>
	<path class="st0" d="M101.2,309.5v-9.4h-8.1v-19.4H40.5v19.4h-8.1v9.4h8.1v19.2h-8.1v9.4h8.1v19.2h-8.1v9.4h8.1v19.2h-8.1v9.4h8.1
		v19.2h-8.1v9.4h8.1v19.2h-8.1v9.4h8.1v19.2h-8.1v9.4h8.1v21.1h52.6v-21.1h8.1v-9.4h-8.1v-19.2h8.1v-9.4h-8.1v-19.2h8.1v-9.4h-8.1
		v-19.2h8.1v-9.4h-8.1v-19.2h8.1v-9.4h-8.1V338h8.1v-9.4h-8.1v-19.2h8.1V309.5z M83.7,492.5H49.8V290.1h33.9V492.5z"/>
	<g>
		<path class="st0" d="M471.5,501.9h-52.6V280.7h52.6V501.9z M428.3,492.5h33.9V290.1h-33.9V492.5z"/>
		<path class="st0" d="M410.8,300.1h12.8v9.4h-12.8V300.1z"/>
		<path class="st0" d="M410.8,328.6h12.8v9.4h-12.8V328.6z"/>
		<path class="st0" d="M410.8,357.2h12.8v9.4h-12.8V357.2z"/>
		<path class="st0" d="M410.8,385.8h12.8v9.4h-12.8V385.8z"/>
		<path class="st0" d="M410.8,414.3h12.8v9.4h-12.8V414.3z"/>
		<path class="st0" d="M410.8,442.9h12.8v9.4h-12.8V442.9z"/>
		<path class="st0" d="M410.8,471.4h12.8v9.4h-12.8V471.4z"/>
		<path class="st0" d="M466.8,300.1h12.8v9.4h-12.8V300.1z"/>
		<path class="st0" d="M466.8,328.6h12.8v9.4h-12.8V328.6z"/>
		<path class="st0" d="M466.8,357.2h12.8v9.4h-12.8V357.2z"/>
		<path class="st0" d="M466.8,385.8h12.8v9.4h-12.8V385.8z"/>
		<path class="st0" d="M466.8,414.3h12.8v9.4h-12.8V414.3z"/>
		<path class="st0" d="M466.8,442.9h12.8v9.4h-12.8V442.9z"/>
		<path class="st0" d="M466.8,471.4h12.8v9.4h-12.8V471.4z"/>
	</g>
	<g>
		<path class="st0" d="M225.7,220.2c-0.1-0.9-0.2-1.7-0.3-2.6c0-0.6-0.1-1.2-0.1-1.9c0-0.1,0-0.1,0-0.2h-70.5v-33.9h80.7
			c1.3-3.2,2.6-6.3,3.9-9.4H233v4.8h-9.4v-4.7h-19.2v4.7H195v-4.7h-19.2v4.7h-9.4v-4.7h-21.1v52.6h21.1v-4.7h9.4v4.7H195v-4.7h9.4
			v4.7h19.2v-4.7H225.7z"/>
		<path class="st0" d="M366.6,172.3h-19.4v4.7h-9.4v-4.7h-19.2v4.7h-9.4v-4.7H290v4.7h-9.4v-4.7h-8.1c1.3,3.1,2.6,6.2,3.9,9.4h80.7
			v33.9h-70.5c0,0.1,0,0.1,0,0.2c0,0.6,0,1.2-0.1,1.9c-0.1,0.9-0.2,1.8-0.3,2.6h3.8v4.7h19.2v-4.7h9.4v4.7h19.2v-4.7h9.4v4.7h19.4
			L366.6,172.3L366.6,172.3z"/>
		<rect x="337.8" y="164.1" class="st0" width="9.4" height="8.1"/>
		<rect x="337.8" y="172.3" class="st0" width="9.4" height="4.7"/>
		<rect x="309.3" y="164.1" class="st0" width="9.4" height="8.1"/>
		<rect x="309.3" y="172.3" class="st0" width="9.4" height="4.7"/>
		<rect x="280.7" y="164.1" class="st0" width="9.4" height="8.1"/>
		<rect x="280.7" y="172.3" class="st0" width="9.4" height="4.7"/>
		<rect x="223.6" y="164.1" class="st0" width="9.4" height="8.1"/>
		<rect x="223.6" y="172.3" class="st0" width="9.4" height="4.7"/>
		<rect x="195.1" y="164.1" class="st0" width="9.4" height="8.1"/>
		<rect x="195.1" y="172.3" class="st0" width="9.4" height="4.7"/>
		<rect x="166.5" y="164.1" class="st0" width="9.4" height="8.1"/>
		<rect x="166.5" y="172.3" class="st0" width="9.4" height="4.7"/>
		<rect x="337.8" y="224.9" class="st0" width="9.4" height="8.1"/>
		<rect x="337.8" y="220.2" class="st0" width="9.4" height="4.7"/>
		<rect x="309.3" y="224.9" class="st0" width="9.4" height="8.1"/>
		<rect x="309.3" y="220.2" class="st0" width="9.4" height="4.7"/>
		<path class="st0" d="M284.5,226.9c-0.9,2.2-2,4.2-3.2,6.1h8.8v-8.1h-4.8C285.1,225.6,284.8,226.3,284.5,226.9z"/>
		<path class="st0" d="M286.3,220.2c-0.1,0.7-0.2,1.4-0.4,2.1c-0.2,0.9-0.4,1.8-0.7,2.6h4.8v-4.7H286.3z"/>
		<path class="st0" d="M226.7,224.9h-3.1v8.1h7.1c-1.3-1.9-2.4-3.9-3.2-6.1C227.2,226.3,226.9,225.6,226.7,224.9z"/>
		<path class="st0" d="M226,222.3c-0.1-0.7-0.3-1.4-0.4-2.1h-2v4.7h3.1C226.5,224,226.2,223.2,226,222.3z"/>
		<rect x="195.1" y="224.9" class="st0" width="9.4" height="8.1"/>
		<rect x="195.1" y="220.2" class="st0" width="9.4" height="4.7"/>
		<rect x="166.5" y="224.9" class="st0" width="9.4" height="8.1"/>
		<rect x="166.5" y="220.2" class="st0" width="9.4" height="4.7"/>
		<path class="st0" d="M268.3,186.3c1.3,3.2,2.5,6.4,3.6,9.4c3.2,8.8,5.4,16,5.4,19.8h9.4c-0.1-4.4-2-11.6-4.9-19.8
			c-1.1-3-2.2-6.2-3.5-9.4c-0.6-1.6-1.2-3.1-1.9-4.7h-10.1C267,183.2,267.6,184.8,268.3,186.3z"/>
		<path class="st0" d="M252.2,166.3v-2.2h1c1-2.2,1.9-4.3,2.9-6.3c0.9,2.1,1.9,4.2,2.9,6.3h2.7v6.1c0.3,0.7,0.6,1.3,0.9,2h10.2
			c-5.7-13.4-11.2-25-12.4-27.6l-4.2-8.9l-4.2,8.9c-1.2,2.6-6.7,14.2-12.4,27.6h10.2C250.4,170.3,251.3,168.3,252.2,166.3z"/>
		<path class="st0" d="M280.7,224.9h-5.5c-0.3,0.7-0.7,1.4-1.1,2.1c-3.8,6-10.5,10.1-18.1,10.1s-14.3-4-18.1-10.1
			c-0.4-0.7-0.8-1.4-1.1-2.1H233v8.1h-2.3c0.5,0.7,1,1.4,1.5,2.1c5.6,6.9,14.2,11.3,23.8,11.3c10.1,0,19.1-4.9,24.7-12.5
			c0.2-0.3,0.4-0.6,0.6-0.8h-0.6V224.9z"/>
		<path class="st0" d="M240.1,195.7c1.1-3,2.3-6.1,3.6-9.4c0.6-1.5,1.3-3.1,1.9-4.7h-10.1c-0.6,1.6-1.2,3.1-1.9,4.7
			c-0.2,0.6-0.5,1.2-0.7,1.8c-0.4,1-0.7,2-1.1,2.9c-0.6,1.6-1.1,3.2-1.7,4.7c-2.9,8.2-4.8,15.4-4.9,19.8h9.4
			C234.8,211.8,236.9,204.5,240.1,195.7z"/>
		<path class="st0" d="M245.6,181.6c1.3-3.1,2.6-6.2,3.9-9.4h-10.2c-1.3,3.1-2.6,6.2-3.9,9.4H245.6z"/>
		<path class="st0" d="M277.3,215.7c0,0.6,0,1.2-0.1,1.9c-0.2,2.6-0.9,5.1-2,7.3h5.5v-4.7h5.6c0.1-0.9,0.2-1.7,0.3-2.6
			c0-0.6,0.1-1.2,0.1-1.9c0-0.1,0-0.1,0-0.2h-9.4C277.3,215.6,277.3,215.6,277.3,215.7z"/>
		<path class="st0" d="M266.4,181.6h10.1c-1.3-3.2-2.6-6.3-3.9-9.4h-10.2C263.8,175.4,265.1,178.5,266.4,181.6z"/>
		<path class="st0" d="M234.7,215.7c0-0.1,0-0.1,0-0.2h-9.4c0,0.1,0,0.1,0,0.2c0,0.6,0,1.2,0.1,1.9c0.1,0.9,0.2,1.8,0.3,2.6h7.3v4.7
			h3.8c-1.1-2.2-1.8-4.7-2-7.3C234.7,217,234.7,216.3,234.7,215.7z"/>
		<path class="st0" d="M261.5,164.1h-2.7c0.9,2,1.8,4.1,2.7,6.1V164.1z"/>
		<path class="st0" d="M252.2,164.1v2.2c0.3-0.7,0.7-1.5,1-2.2H252.2z"/>
		<path class="st0" d="M285.3,224.9h-4.6v8.1h0.6c1.3-1.9,2.4-3.9,3.2-6.1C284.8,226.3,285.1,225.6,285.3,224.9z"/>
		<path class="st0" d="M280.7,224.9h4.6c0.3-0.9,0.5-1.7,0.7-2.6c0.1-0.7,0.3-1.4,0.4-2.1h-5.6v4.7H280.7z"/>
		<path class="st0" d="M233,224.9h-6.3c0.2,0.7,0.5,1.4,0.7,2.1c0.9,2.2,1.9,4.2,3.2,6.1h2.3v-8.2H233z"/>
		<path class="st0" d="M225.7,220.2c0.1,0.7,0.2,1.4,0.4,2.1c0.2,0.9,0.4,1.8,0.7,2.6h6.3v-4.7H225.7z"/>
	</g>
	<polygon class="st0" points="449.9,268.5 440.5,268.5 440.5,205.3 377.6,205.3 377.6,196 449.9,196 	"/>
	<polygon class="st0" points="70.9,268.5 61.5,268.5 61.5,196 133.8,196 133.8,205.3 70.9,205.3 	"/>
</g>
</svg>
