<?xml version="1.0" encoding="utf-8"?>
<!-- Generator: Adobe Illustrator 24.0.2, SVG Export Plug-In . SVG Version: 6.00 Build 0)  -->
<svg version="1.1" id="Layer_1" xmlns="http://www.w3.org/2000/svg" xmlns:xlink="http://www.w3.org/1999/xlink" x="0px" y="0px"
	 viewBox="0 0 512 400" style="enable-background:new 0 0 512 400;" xml:space="preserve">
<style type="text/css">
	.st0{fill:#45AD34;}
</style>
<path class="st0" d="M467,249.4h-20.4c9.4-11.9,14.5-26.5,14.5-41.6v-22.5c-0.1-30.7-20.8-57.5-50.5-65.3v-8.6
	c0-2.9-2.3-5.2-5.2-5.2c-2.9,0-5.2,2.3-5.2,5.2v6.8c-2.2-0.2-4.4-0.3-6.6-0.3h-25.1v-6.4c0-2.9-2.3-5.2-5.2-5.2
	c-2.9,0-5.2,2.3-5.2,5.2v6.4h-33.4c-0.7-11-9.7-19.5-20.7-19.6h-27.7c-11,0-20.1,8.6-20.7,19.6l0,0c-37.3,0-67.4,30.2-67.5,67.5
	v22.5c0,16.6,6.1,32.6,17.3,44.9v29.6h-11l-13.2-9.5l-1.4-83.1c-0.2-10.6-8.2-19.5-18.8-20.9v-13c0-2.9-2.3-5.2-5.2-5.2h-48.9
	c-2.9,0-5.2,2.3-5.2,5.2v12.9H91c-8.1,0-15.6,4.6-19.2,11.9c-1.7,3.4-3.4,6.9-5.1,10.4c-14.7,30.6-22.2,51.4-22.2,61.7v62.4
	c-3,2.1-4.7,5.5-4.7,9.1V345c0,6.1,5,11.1,11.1,11.1h41.7c2.9,0,5.2-2.3,5.2-5.2v-9.3c0-20.4,16.5-36.9,36.9-36.9l0,0h20.8
	c20.4,0,36.9,16.5,36.9,36.9l0,0v9.3c0,2.9,2.3,5.2,5.2,5.2h17.6v3.9c0,8.6,7,15.6,15.6,15.6h66.4c8.6,0,15.6-7,15.6-15.6v-3.9h17.7
	c2.9,0,5.2-2.3,5.2-5.2v-9.3c0-20.4,16.5-36.9,36.9-36.9l0,0h18.6c19.5,0,35.6,15.1,36.8,34.6c0,0.8,0.1,1.5,0.1,2.3v9.3
	c0,2.9,2.3,5.2,5.2,5.2c2.9,0,5.2-2.3,5.2-5.2v-9.3c0-0.2,0-0.5,0-0.7l25.6-29.8c0.8-0.9,1.3-2.2,1.3-3.4v-20.2
	c0-2.9-2.3-5.2-5.2-5.2h-3.9V278H467c2.9,0,5.2-2.3,5.2-5.2v-18.2C472.2,251.7,469.8,249.4,467,249.4z M112,161.1h38.5v7.7H112
	V161.1z M74.7,198.4h24.9V234L56,245.7C58.4,235.6,64.9,219.1,74.7,198.4z M87.5,341.7v4.1H51c-0.4,0-0.7-0.3-0.7-0.7v-20.8
	c0-0.3,0.2-0.6,0.6-0.7c0.1,0,0.1,0,0.2,0h40.1C88.7,329.2,87.5,335.4,87.5,341.7z M187.3,306.6c-8.7-7.9-20-12.3-31.8-12.3h-20.8
	c-14.8,0-28.7,6.9-37.7,18.7H85c2.7-8.7,10.8-24.9,34.9-30.4c2.8-0.6,4.5-3.4,3.9-6.2c-0.6-2.8-3.4-4.5-6.2-3.9l0,0
	c-21,4.8-31.9,16.8-37.3,25.9c-2.7,4.6-4.7,9.5-6,14.6H55v-56.4l88.6-23.7c2.8-0.7,5.3-2.2,7.3-4.2c3.1-3.1,4.8-7.2,4.8-11.6v-18.6
	c0-5.8-4.7-10.6-10.6-10.6H79.7c0.5-0.9,0.9-1.9,1.4-2.8c1.9-3.8,5.7-6.1,9.9-6.1h67.2c6,0,10.9,4.8,11,10.8l1.3,80.4h-32.4
	c-2.9,0-5.2,2.3-5.2,5.2s2.3,5.2,5.2,5.2h36l13.1,9.5L187.3,306.6z M110,231.3v-32.8h35.1c0.1,0,0.2,0.1,0.2,0.2l0,0v18.6
	c0,1.6-0.6,3.1-1.7,4.2c-0.7,0.7-1.7,1.3-2.7,1.5L110,231.3z M410.5,130.8c23.8,7.4,40.1,29.5,40.1,54.5v22.5
	c-0.1,25-16.3,47-40.1,54.5V130.8z M410.5,273.1c9.5-2.5,18.3-7,25.9-13.3h9.5v22.6h-35.4V273.1z M368.4,128.2h25.1
	c2.2,0,4.4,0.1,6.6,0.4v6.9h-31.7V128.2z M368.4,145.9h31.7v8.1h-31.7V145.9z M368.4,164.4h31.7v8.1h-31.7V164.4z M368.4,182.9h31.7
	v8.1h-31.7V182.9z M368.4,201.4h31.7v8.1h-31.7V201.4z M368.4,219.9h31.7v8.1h-31.7V219.9z M368.4,238.4h31.7v8h-31.7V238.4z
	 M368.4,256.9h31.7v7.6c-2.2,0.3-4.4,0.4-6.6,0.4h-25.1V256.9z M368.4,275.3h25.1c2.2,0,4.4-0.1,6.6-0.3v7.4h-31.7V275.3z
	 M276.2,108.6h27.7c5.3,0,9.7,3.9,10.3,9.2h-48.3C266.5,112.6,270.9,108.7,276.2,108.6z M198.3,207.8v-22.5
	c0-31.5,25.6-57.1,57.1-57.1H358v136.7h-14.3l-6.7-12.7c-0.9-1.7-2.7-2.8-4.6-2.8H325c-2.9,0-5.2,2.3-5.2,5.2c0,2.9,2.3,5.2,5.2,5.2
	h4.3l11.9,22.6h-79.7l11.9-22.6h34.3c2.9,0,5.2-2.3,5.2-5.2s-2.3-5.2-5.2-5.2h-37.4c-1.9,0-3.7,1.1-4.6,2.8l-6.7,12.7h-3.5
	C223.9,264.8,198.4,239.3,198.3,207.8L198.3,207.8z M358,275.3v7.1h-5.1l-3.7-7.1H358z M253.5,275.2l-3.8,7.1h-34.2v-20.2
	C226.6,270.3,239.8,274.9,253.5,275.2L253.5,275.2z M302.4,360c0,2.9-2.3,5.2-5.2,5.2h-66.4c-2.9,0-5.2-2.3-5.2-5.2v-28.1
	c0-2.9,2.3-5.2,5.2-5.2h66.4c2.9,0,5.2,2.3,5.2,5.2V360z M325.3,341.7v4.1h-12.5V332c0-8.6-7-15.6-15.6-15.6h-66.4
	c-8.6,0-15.6,7-15.6,15.6v13.8h-12.4v-4.1c0-7.4-1.8-14.7-5.1-21.3V313H335C328.8,321.2,325.4,331.3,325.3,341.7L325.3,341.7z
	 M436.4,327.5c-1.6-5.3-4.2-10.2-7.5-14.6H449L436.4,327.5z M455,302.6h-37.1c-7.8-5.4-17.1-8.3-26.6-8.2h-18.6
	c-9.5,0-18.8,2.8-26.6,8.2H197.7v-9.8H455V302.6z M461.8,267.6h-5.5v-7.8h5.5V267.6z"/>
<path class="st0" d="M146.3,312.5c-21.7,0-39.3,17.6-39.3,39.3c0,21.7,17.6,39.3,39.3,39.3s39.3-17.6,39.3-39.3l0,0
	C185.5,330.1,168,312.5,146.3,312.5z M146.3,380.7c-16,0-28.9-12.9-28.9-28.9s12.9-28.9,28.9-28.9s28.9,12.9,28.9,28.9l0,0
	C175.1,367.8,162.2,380.7,146.3,380.7z"/>
<path class="st0" d="M146.3,338.6c-7.3,0-13.3,5.9-13.3,13.3s5.9,13.3,13.3,13.3s13.3-5.9,13.3-13.3l0,0
	C159.5,344.5,153.6,338.6,146.3,338.6z M146.3,354.7c-1.6,0-2.9-1.3-2.9-2.9s1.3-2.9,2.9-2.9c1.6,0,2.9,1.3,2.9,2.9l0,0
	C149.1,353.4,147.8,354.7,146.3,354.7z"/>
<path class="st0" d="M381.6,312.5c-21.7,0-39.3,17.6-39.3,39.3c0,21.7,17.6,39.3,39.3,39.3c21.7,0,39.3-17.6,39.3-39.3l0,0
	C420.8,330.1,403.2,312.5,381.6,312.5z M381.6,380.7c-16,0-28.9-12.9-28.9-28.9s12.9-28.9,28.9-28.9s28.9,12.9,28.9,28.9l0,0
	C410.4,367.8,397.5,380.7,381.6,380.7z"/>
<path class="st0" d="M381.6,338.6c-7.3,0-13.3,5.9-13.3,13.3s5.9,13.3,13.3,13.3s13.3-5.9,13.3-13.3l0,0
	C394.8,344.5,388.9,338.6,381.6,338.6z M381.6,354.7c-1.6,0-2.9-1.3-2.9-2.9s1.3-2.9,2.9-2.9s2.9,1.3,2.9,2.9l0,0
	C384.4,353.4,383.1,354.7,381.6,354.7z"/>
</svg>
