<?xml version="1.0" encoding="utf-8"?>
<!-- Generator: Adobe Illustrator 24.0.2, SVG Export Plug-In . SVG Version: 6.00 Build 0)  -->
<svg version="1.1" id="Capa_1" xmlns="http://www.w3.org/2000/svg" xmlns:xlink="http://www.w3.org/1999/xlink" x="0px" y="0px"
	 viewBox="0 0 512 400" style="enable-background:new 0 0 512 400;" xml:space="preserve">
<style type="text/css">
	.st0{fill:#45AD34;}
</style>
<g>
	<path class="st0" d="M129.4,325.4c-11,0-20,8.9-20,20c0,11,8.9,20,20,20s20-8.9,20-20S140.5,325.4,129.4,325.4z M129.4,352
		c-3.7,0-6.7-3-6.7-6.7s3-6.7,6.7-6.7s6.7,3,6.7,6.7C136.1,349,133.1,352,129.4,352z"/>
	<path class="st0" d="M382.6,325.4c-11,0-20,8.9-20,20c0,11,8.9,20,20,20s20-8.9,20-20C402.5,334.3,393.6,325.4,382.6,325.4z
		 M382.6,352c-3.7,0-6.7-3-6.7-6.7s3-6.7,6.7-6.7s6.7,3,6.7,6.7C389.2,349,386.2,352,382.6,352z"/>
	<path class="st0" d="M461.7,235.7l-48.6-91.1c-4-7.6-12-12.3-20.6-12.3h-50V119h73.3c3.7,0,6.7-3,6.7-6.7
		c0-18.4-14.9-33.3-33.3-33.3H148.9c-3.3-22.9-23-39.9-46.1-40c-3.7,0-6.7,3-6.7,6.7V79H69.5c-3.7,0-6.7,3-6.7,6.7
		c0,18.4,14.9,33.3,33.3,33.3h26.6v13.3h-50c-12.9,0-23.3,10.4-23.3,23.3v173.2c0,12.9,10.4,23.3,23.3,23.3h10.5
		c3.7,25.5,27.3,43.2,52.8,39.5c20.5-3,36.5-19,39.5-39.5h160.8c3.7,25.5,27.3,43.2,52.8,39.5c20.5-3,36.5-19,39.5-39.5h10.5
		c12.9,0,23.3-10.4,23.3-23.3v-89.9C462.5,237.7,462.2,236.6,461.7,235.7z M412.8,172.2l32,60h-95.5v-60H412.8z M109.5,52.9
		c13.1,2.7,23.3,12.9,26,26h-26V52.9z M96.1,105.6c-8.5,0-16-5.3-18.8-13.3h311.9c8.5,0,16,5.3,18.8,13.3H96.1z M329.3,118.9v13.3
		H136.1v-13.3H329.3z M62.8,172.2h46.6v6.7H62.8V172.2z M62.8,192.2h46.6v40H62.8V192.2z M62.8,272.1h13.3c3.7,0,6.7,3,6.7,6.7
		s-3,6.7-6.7,6.7H62.8V272.1z M129.4,378.7c-18.4,0-33.3-14.9-33.3-33.3s14.9-33.3,33.3-33.3s33.3,14.9,33.3,33.3
		C162.7,363.8,147.8,378.7,129.4,378.7z M382.6,378.7c-18.4,0-33.3-14.9-33.3-33.3s14.9-33.3,33.3-33.3s33.3,14.9,33.3,33.3
		C415.8,363.8,400.9,378.7,382.6,378.7z M449.2,285.4h-13.3c-3.7,0-6.7-3-6.7-6.7s3-6.7,6.7-6.7h13.3V285.4z M449.2,258.8h-13.3
		c-11,0-20,8.9-20,20c0,11,8.9,20,20,20h13.3v30c0,5.5-4.5,10-10,10h-10.5c-3.7-25.5-27.3-43.2-52.8-39.5c-20.5,3-36.5,19-39.5,39.5
		H175.6c-3.7-25.5-27.3-43.2-52.8-39.5c-20.5,3-36.5,19-39.5,39.5H72.8c-5.5,0-10-4.5-10-10v-30h13.3c11,0,20-8.9,20-20
		c0-11-8.9-20-20-20H62.8v-13.3h53.3c3.7,0,6.7-3,6.7-6.7v-73.3c0-3.7-3-6.7-6.7-6.7H62.8v-3.3c0-5.5,4.5-10,10-10h319.7
		c3.7,0,7.1,2,8.8,5.3l4.3,8h-63.1c-3.7,0-6.7,3-6.7,6.7v73.3c0,3.7,3,6.7,6.7,6.7h106.6v13.3H449.2z"/>
	<path class="st0" d="M362.6,252.1h-20c-3.7,0-6.7,3-6.7,6.7s3,6.7,6.7,6.7h20c3.7,0,6.7-3,6.7-6.7S366.3,252.1,362.6,252.1z"/>
	<path class="st0" d="M316,158.9H142.8c-3.7,0-6.7,3-6.7,6.7v73.3c0,3.7,3,6.7,6.7,6.7H316c3.7,0,6.7-3,6.7-6.7v-73.3
		C322.6,161.8,319.6,158.9,316,158.9z M309.3,172.2v6.7H149.4v-6.7H309.3z M149.4,232.1v-40h159.9v40H149.4z"/>
	<path class="st0" d="M282.6,298.7h-93.3c-3.7,0-6.7,3-6.7,6.7s3,6.7,6.7,6.7h93.3c3.7,0,6.7-3,6.7-6.7
		C289.3,301.7,286.3,298.7,282.6,298.7z"/>
	<path class="st0" d="M216,318.7h-26.6c-3.7,0-6.7,3-6.7,6.7s3,6.7,6.7,6.7H216c3.7,0,6.7-3,6.7-6.7S219.7,318.7,216,318.7z"/>
</g>
</svg>
