<?xml version="1.0" encoding="utf-8"?>
<!-- Generator: Adobe Illustrator 24.0.2, SVG Export Plug-In . SVG Version: 6.00 Build 0)  -->
<svg version="1.1" id="Capa_1" xmlns="http://www.w3.org/2000/svg" xmlns:xlink="http://www.w3.org/1999/xlink" x="0px" y="0px"
	 viewBox="0 0 512 400" style="enable-background:new 0 0 512 400;" xml:space="preserve">
<style type="text/css">
	.st0{fill:#202C54;}
	.st1{fill:none;stroke:#202C54;stroke-width:11.2655;stroke-miterlimit:10;}
</style>
<g id="Van">
	<path class="st0" d="M380.8,318.6c-11.5,0-20.8,9.3-20.8,20.8s9.3,20.8,20.8,20.8s20.8-9.3,20.8-20.8
		C401.6,327.9,392.3,318.6,380.8,318.6z M380.8,346.3c-3.8,0-6.9-3.1-6.9-6.9s3.1-6.9,6.9-6.9s6.9,3.1,6.9,6.9
		S384.6,346.3,380.8,346.3z"/>
	<path class="st0" d="M131.2,318.6c-11.5,0-20.8,9.3-20.8,20.8s9.3,20.8,20.8,20.8s20.8-9.3,20.8-20.8S142.7,318.6,131.2,318.6z
		 M131.2,346.3c-3.8,0-6.9-3.1-6.9-6.9s3.1-6.9,6.9-6.9s6.9,3.1,6.9,6.9S135,346.3,131.2,346.3z"/>
	<path class="st0" d="M464,304.7h-7c0,0-0.2-66.6-0.3-68.8c0-0.5,0-1-0.1-1.5c-1.8-27-12.9-52.6-31.4-72.3c-0.3-0.5-0.7-0.9-1.2-1.3
		c-22.2-23.2-52.8-36.3-84.9-36.3H89.6C70.5,124.5,55,140,55,159.2v145.6h-7c-3.8,0-6.9,3.1-6.9,6.9v27.7c0,3.8,3.1,6.9,6.9,6.9
		h42.2c3.8,22.6,25.2,37.9,47.9,34.1c17.5-2.9,31.1-16.6,34.1-34.1h167.6c3.8,22.6,25.2,37.9,47.9,34.1
		c17.5-2.9,31.1-16.6,34.1-34.1H464c3.8,0,6.9-3.1,6.9-6.9v-27.7C470.9,307.8,467.8,304.7,464,304.7z M416.5,173
		c13.9,15.5,22.9,34.8,25.7,55.5h-89.1V173H416.5z M68.8,173h48.5v55.5H68.8V173z M68.8,242.3h55.5c3.8,0,6.9-3.1,6.9-6.9v-69.3
		c0-3.8-3.1-6.9-6.9-6.9H68.8c0-11.5,9.3-20.8,20.8-20.8h249.6c22.4,0,44.2,7.3,62.1,20.8h-55.2c-3.8,0-6.9,3.1-6.9,6.9v69.3
		c0,3.8,3.1,6.9,6.9,6.9h97.1v62.4h-6.9c-3.8,0-6.9,3.1-6.9,6.9v20.8h-7.6c-3.8-22.6-25.2-37.9-47.9-34.1
		c-17.5,2.9-31.1,16.6-34.1,34.1H172.2c-3.8-22.6-25.2-37.9-47.9-34.1c-17.5,2.9-31.1,16.6-34.1,34.1h-7.6v-20.8
		c0-3.8-3.1-6.9-6.9-6.9h-6.9C68.8,304.7,68.8,242.3,68.8,242.3z M55,332.5v-13.9h13.9v13.9H55z M131.2,367.1
		c-15.3,0-27.7-12.4-27.7-27.7s12.4-27.7,27.7-27.7s27.7,12.4,27.7,27.7S146.5,367.1,131.2,367.1z M380.8,367.1
		c-15.3,0-27.7-12.4-27.7-27.7s12.4-27.7,27.7-27.7s27.7,12.4,27.7,27.7S396.1,367.1,380.8,367.1z M457,332.5h-13.9v-13.9H457V332.5
		z"/>
	<path class="st0" d="M145.1,242.3h180.2c3.8,0,6.9-3.1,6.9-6.9v-69.3c0-3.8-3.1-6.9-6.9-6.9H145.1c-3.8,0-6.9,3.1-6.9,6.9v69.3
		C138.1,239.2,141.2,242.3,145.1,242.3z M152,173h166.4v55.5H152V173z"/>
	<path class="st0" d="M82.7,263.1h104c3.8,0,6.9-3.1,6.9-6.9s-3.1-6.9-6.9-6.9h-104c-3.8,0-6.9,3.1-6.9,6.9
		C75.8,260,78.9,263.1,82.7,263.1z"/>
	<path class="st0" d="M214.4,263.1c3.8,0,6.9-3.1,6.9-6.9s-3.1-6.9-6.9-6.9h-6.9c-3.8,0-6.9,3.1-6.9,6.9s3.1,6.9,6.9,6.9H214.4z"/>
	<path class="st0" d="M325.3,304.7H193.6c-3.8,0-6.9,3.1-6.9,6.9s3.1,6.9,6.9,6.9h131.7c3.8,0,6.9-3.1,6.9-6.9
		C332.3,307.8,329.2,304.7,325.3,304.7z"/>
</g>
<path class="st1" d="M446.3,281.4h-22.1c-2.6,0-4.8-2.2-4.8-4.8v-16.3c0-2.6,2.2-4.8,4.8-4.8h22.1c2.6,0,4.8,2.2,4.8,4.8v16.3
	C451.1,279.2,448.9,281.4,446.3,281.4z"/>
</svg>
