<?xml version="1.0" encoding="utf-8"?>
<!-- Generator: Adobe Illustrator 16.0.0, SVG Export Plug-In . SVG Version: 6.00 Build 0)  -->
<!DOCTYPE svg PUBLIC "-//W3C//DTD SVG 1.1//EN" "http://www.w3.org/Graphics/SVG/1.1/DTD/svg11.dtd">
<svg version="1.1" id="Capa_1" xmlns="http://www.w3.org/2000/svg" xmlns:xlink="http://www.w3.org/1999/xlink" x="0px" y="0px"
	 width="197.29px" height="135.282px" viewBox="0 0 197.29 135.282" enable-background="new 0 0 197.29 135.282"
	 xml:space="preserve">
<g>
	<path fill="#666666" d="M67.226,134.497l-66.081-0.056l15.459-74.308c3.655-15.96,11.97-29.424,24.938-40.396
		C56.504,7.105,74.122,0.785,94.407,0.785l-6.982,31.917c-12.641,2.993-21.118,6.407-25.435,10.225
		c-4.325,3.827-7.817,12.555-10.473,26.185l29.314-0.024L67.226,134.497z M168.715,134.441h-66.329l15.459-74.308
		c3.655-16.286,11.969-29.923,24.936-40.896c14.626-12.296,32.417-18.452,53.364-18.452l-6.982,31.917
		c-12.642,2.993-21.196,6.57-25.686,10.724c-4.487,4.161-8.063,12.717-10.722,25.685h29.924L168.715,134.441z"/>
</g>
</svg>
