<?xml version="1.0" encoding="utf-8"?>
<!-- Generator: Adobe Illustrator 24.0.2, SVG Export Plug-In . SVG Version: 6.00 Build 0)  -->
<svg version="1.1" id="Capa_1" xmlns="http://www.w3.org/2000/svg" xmlns:xlink="http://www.w3.org/1999/xlink" x="0px" y="0px"
	 viewBox="0 0 511 511" style="enable-background:new 0 0 511 511;" xml:space="preserve">
<style type="text/css">
	.st0{fill:#45AD34;}
	.st1{fill:none;stroke:#FFFFFF;stroke-width:18;stroke-miterlimit:10;}
	.st2{fill:none;stroke:#45AD34;stroke-width:18;stroke-miterlimit:10;}
</style>
<path class="st0" d="M475.1,255.7L401,159.4c-2.7-3.6-7.7-4.4-11.5-2l-47.8,30.4h-62.4c-0.8,0-1.6,0.2-2.4,0.4l-48.4,13.9
	l-50.2-13.7l-48.8-31c-3.7-2.4-8.6-1.6-11.4,1.9L36,260.8c-2.9,3.6-2.5,9,1.1,12l43,37l38.5,51.9c-11.3,12-11.1,31,0.7,42.7
	c5.2,5.2,11.8,8.1,18.6,8.8c-0.2,1.5-0.4,3.1-0.4,4.7c0,8.2,3.2,15.9,9,21.7c5.8,5.8,13.5,9,21.7,9c0.1,0,0.2,0,0.3,0
	c0,0.2,0,0.4,0,0.6c0,8.2,3.2,15.9,9,21.7c5.8,5.8,13.5,9,21.7,9c1.6,0,3.2-0.1,4.8-0.4c0.7,6.8,3.6,13.5,8.8,18.7
	c6,6,13.8,9,21.7,9c7.9,0,15.7-3,21.7-9l4.7-4.7l2,1.6c5.9,5.7,13.6,8.6,21.3,8.6c7.9,0,15.7-3,21.7-9c6.1-6.1,9.1-14.2,9-22.2
	c8,0.1,16.1-2.9,22.2-9c6.1-6.1,9.1-14.2,9-22.2c8.3,0.1,16.3-3.1,22.2-9c6.1-6.1,9.1-14.2,9-22.2c8,0.1,16.1-2.9,22.2-9
	c10.4-10.4,11.8-26.5,4-38.4l28.1-58.9l42.3-36.4C477.4,264.5,477.9,259.3,475.1,255.7z M126.6,176.2l35.1,22.3l-76.3,93l-30.6-26.3
	L126.6,176.2z M131.6,373.3l10.6-10.6c0.3-0.3,0.7-0.6,1-0.9c2.1-1.7,4.6-2.7,7.2-2.9c0.1,0,0.2,0,0.2,0c0.4,0,0.8-0.1,1.1,0
	c3.6,0.1,7,1.5,9.5,4.2c4.9,5.2,4.6,13.7-0.6,18.9l-10.3,10.3c-5.2,5.2-13.6,5.2-18.8,0C126.4,386.9,126.4,378.5,131.6,373.3z
	 M158.8,427.3c-2.5-2.5-3.9-5.9-3.9-9.4c0-3.6,1.4-6.9,3.9-9.4l20.5-20.5c3.9-3.9,10.1-5,15.1-2.6c5.2,2.5,8.1,8.1,7.3,13.8
	c-0.4,3-1.8,5.9-4,8l-20.2,20.2c-2.5,2.5-5.9,3.9-9.4,3.9S161.3,429.9,158.8,427.3z M189.8,458.6c-2.5-2.5-3.9-5.9-3.9-9.4
	c0-3.6,1.4-6.9,3.9-9.4l20.5-20.5c4.2-4.2,11-5.1,16.1-2.1c4.7,2.7,7.2,8.1,6.4,13.5c-0.4,2.9-1.8,5.7-3.9,7.8l-20.2,20.2
	c-2.5,2.5-5.9,3.9-9.4,3.9S192.3,461.2,189.8,458.6z M225.1,485.9c-5.2-5.2-5.2-13.6,0-18.8l10.6-10.6c0.3-0.3,0.7-0.6,1-0.9
	c0,0,0,0,0,0c1.7-1.4,3.7-2.3,5.9-2.7c0.1,0,0.1,0,0.2,0c0.4-0.1,0.7-0.1,1.1-0.2c0.2,0,0.3,0,0.5,0c0.3,0,0.6,0,0.9,0
	c3.6,0.1,7,1.5,9.5,4.2c0.3,0.3,0.6,0.7,0.9,1c4,5.2,3.5,13-1.5,17.9L244,485.9C238.8,491.1,230.3,491.1,225.1,485.9z M387.1,389
	c-5.2,5.2-13.6,5.2-18.8,0c-0.2-0.2-0.4-0.4-0.6-0.5l-55.8-56.4c-3.4-3.4-8.9-3.4-12.3-0.1c-3.4,3.4-3.4,8.9-0.1,12.3l56.4,57
	c0,0,0,0,0,0c5.2,5.2,5.2,13.6,0,18.8c-2.5,2.5-5.9,3.9-9.4,3.9c-3.6,0-6.9-1.4-9.4-3.9L299.4,382c-3.4-3.4-8.9-3.4-12.3-0.1
	c-3.4,3.4-3.4,8.9-0.1,12.3l37.2,37.6c0.2,0.2,0.4,0.5,0.6,0.7c5.2,5.2,5.2,13.6,0,18.8c-5.2,5.2-13.6,5.2-18.8,0l-20.6-20.8
	c-3.4-3.4-8.9-3.4-12.3-0.1c-3.4,3.4-3.4,8.9-0.1,12.3l20,20.2c0.2,0.2,0.4,0.5,0.6,0.7c5.2,5.2,5.2,13.6,0,18.8
	c-5.2,5.2-13.6,5.2-18.8,0c-0.6-0.6-1.3-1.1-2-1.6c-0.6-0.4-0.7-0.7-0.4-1.4c0.3-0.7,0.7-1.3,1-2c0.3-0.8,0.6-1.6,0.8-2.4
	c1.3-4.3,1.7-8.9,1.1-13.4c-1.1-8.5-5.8-16.3-13-21.1c-3.8-2.6-8.3-4.4-12.9-5c2.2-9.9-0.4-20.6-7.4-27.9
	c-5.7-6.1-13.5-9.5-21.9-9.6c-0.3,0-0.6,0-0.9,0c0.2-8-2.7-15.9-8.2-21.7c-5.8-6.1-13.5-9.5-21.9-9.6c-2.5,0-5,0.2-7.4,0.8
	c-1-7.2-4.7-13.8-10.1-18.6c-5.5-4.7-12.3-7.3-19.6-7.4c-7.7-0.1-15.2,2.7-21,7.9l-33.6-45.2l80.3-97.8l25.6,7l-33.4,59
	c-4,7.1-5.1,15.4-2.9,23.3c2.2,7.9,7.3,14.5,14.4,18.5c0.4,0.3,0.9,0.5,1.4,0.7c0,0,0.1,0,0.1,0.1c1.2,0.6,2.4,1.1,3.7,1.5
	c5.8,2,12.1,2.2,18.2,0.6c7.9-2.2,14.5-7.3,18.5-14.4l21.7-38.3l38.8,2.7l103.3,103.3C392.3,375.4,392.3,383.8,387.1,389z
	 M390.7,349.2l-96.9-96.9c-0.2-0.2-0.4-0.4-0.6-0.5c-1.4-1.2-3.1-1.9-4.9-2l-47.5-3.4c-3.3-0.2-6.5,1.5-8.2,4.4L208.2,294
	c-1.8,3.1-4.6,5.3-8,6.3c-3.4,0.9-7,0.5-10.1-1.2c-3.1-1.8-5.3-4.6-6.3-8s-0.5-7,1.2-10.1l32.6-57.5l13.2-3.8c0.1,0,0.2-0.1,0.3-0.1
	l49.3-14.2H340l74.4,94.5L390.7,349.2z M425.7,286.1L357,198.6l35.1-22.3l64.3,83.5L425.7,286.1z"/>
<line class="st1" x1="345.2" y1="282.8" x2="411" y2="231.2"/>
<g>
	<line class="st2" x1="302.7" y1="161.8" x2="361.8" y2="102.6"/>
	<line class="st2" x1="208.3" y1="161.8" x2="149.2" y2="102.6"/>
	<g>
		<line class="st2" x1="255.5" y1="171.5" x2="255.5" y2="105.1"/>
		<line class="st2" x1="255.5" y1="90.2" x2="255.5" y2="74.4"/>
	</g>
</g>
</svg>
