<?xml version="1.0" encoding="utf-8"?>
<!-- Generator: Adobe Illustrator 24.0.2, SVG Export Plug-In . SVG Version: 6.00 Build 0)  -->
<svg version="1.1" id="Capa_1" xmlns="http://www.w3.org/2000/svg" xmlns:xlink="http://www.w3.org/1999/xlink" x="0px" y="0px"
	 viewBox="0 0 512 512" style="enable-background:new 0 0 512 512;" xml:space="preserve">
<style type="text/css">
	.st0{fill:none;stroke:#202C54;stroke-width:15;stroke-linejoin:round;stroke-miterlimit:10;}
	.st1{fill:#202C54;stroke:#202C54;stroke-width:1.2935;stroke-miterlimit:10;}
	.st2{fill:none;stroke:#202C54;stroke-width:15;stroke-miterlimit:10;}
</style>
<polyline class="st0" points="389.8,216.3 353.6,153.5 161.6,153.5 65.7,319.7 161.6,485.9 353.6,485.9 449.5,319.7 397.9,230.3 "/>
<g>
	<path class="st1" d="M168.8,352l15.5-1.4c1.3,7.3,3.8,12.6,7.6,15.9c3.7,3.3,8.5,4.9,14.3,4.9c5,0,9.3-1.2,13.1-3.4
		c3.8-2.3,6.8-5.3,9.2-9.1c2.4-3.8,4.4-8.9,6-15.4c1.6-6.5,2.4-13.1,2.4-19.7c0-0.7,0-1.8-0.1-3.2c-3.2,5.2-7.6,9.3-13.3,12.5
		c-5.6,3.2-11.6,4.8-18.2,4.8c-10.9,0-20.1-3.9-27.6-11.8c-7.6-7.9-11.3-18.3-11.3-31.2c0-13.3,3.9-24.1,11.8-32.2
		c7.9-8.1,17.7-12.2,29.6-12.2c8.5,0,16.4,2.3,23.5,6.9c7.1,4.6,12.5,11.2,16.2,19.7c3.7,8.5,5.5,20.9,5.5,37
		c0,16.8-1.8,30.2-5.5,40.2c-3.6,10-9.1,17.5-16.3,22.8c-7.2,5.2-15.7,7.8-25.4,7.8c-10.3,0-18.7-2.8-25.2-8.6
		C174.1,370.3,170.2,362.3,168.8,352z M235,293.9c0-9.2-2.5-16.6-7.4-22.1c-4.9-5.4-10.9-8.1-17.8-8.1c-7.2,0-13.5,2.9-18.8,8.8
		s-8,13.5-8,22.8c0,8.4,2.5,15.2,7.6,20.4c5,5.2,11.3,7.8,18.7,7.8c7.5,0,13.6-2.6,18.4-7.8C232.6,310.4,235,303.1,235,293.9z"/>
	<path class="st1" d="M268.6,317.5c0-15.5,1.6-28.1,4.8-37.6c3.2-9.5,8-16.8,14.3-21.9c6.3-5.2,14.2-7.7,23.8-7.7
		c7,0,13.3,1.4,18.6,4.3c5.3,2.8,9.7,6.9,13.2,12.3c3.5,5.4,6.2,11.9,8.1,19.5c2,7.7,3,18,3,31.1c0,15.5-1.6,27.9-4.8,37.4
		c-3.2,9.5-7.9,16.8-14.2,22s-14.3,7.8-23.9,7.8c-12.7,0-22.6-4.5-29.9-13.6C273,360,268.6,342.2,268.6,317.5z M285.2,317.5
		c0,21.6,2.5,36,7.6,43.1c5,7.2,11.3,10.7,18.7,10.7c7.4,0,13.6-3.6,18.7-10.8c5-7.2,7.6-21.5,7.6-43.1c0-21.7-2.5-36-7.6-43.1
		c-5-7.1-11.4-10.7-18.9-10.7c-7.4,0-13.3,3.2-17.8,9.4C288,281.1,285.2,295.9,285.2,317.5z"/>
</g>
<line class="st2" x1="404.1" y1="464.8" x2="456.6" y2="373.9"/>
<line class="st2" x1="109" y1="177.8" x2="64.6" y2="254.8"/>
</svg>
