<?xml version="1.0" encoding="utf-8"?>
<!-- Generator: Adobe Illustrator 24.0.2, SVG Export Plug-In . SVG Version: 6.00 Build 0)  -->
<svg version="1.1" id="Capa_1" xmlns="http://www.w3.org/2000/svg" xmlns:xlink="http://www.w3.org/1999/xlink" x="0px" y="0px"
	 viewBox="0 0 512 512" style="enable-background:new 0 0 512 512;" xml:space="preserve">
<style type="text/css">
	.st0{fill:none;stroke:#45AD34;stroke-width:13;stroke-linejoin:round;stroke-miterlimit:10;}
	.st1{fill:#45AD34;stroke:#45AD34;stroke-width:4;stroke-miterlimit:10;}
</style>
<g>
	<polygon class="st0" points="256,417 268.8,442.9 297.4,447 276.7,467.2 281.6,495.7 256,482.2 230.4,495.7 235.3,467.2 214.6,447 
		243.2,442.9 	"/>
	<polygon class="st0" points="380.4,417 393.2,442.9 421.8,447 401.1,467.2 406,495.7 380.4,482.2 354.9,495.7 359.8,467.2 
		339.1,447 367.7,442.9 	"/>
	<polygon class="st0" points="131.6,417 144.3,442.9 172.9,447 152.2,467.2 157.1,495.7 131.6,482.2 106,495.7 110.9,467.2 
		90.2,447 118.8,442.9 	"/>
</g>
<g>
	<g>
		<g>
			<path class="st1" d="M409.7,276.8c0-12.1-8.5-22.3-19.9-24.8c2.7-4,4.3-8.9,4.3-14.1c0-14-11.4-25.5-25.5-25.5h-66.8l8.7-25.9
				c3.5-10.5,2.7-21.6-2.4-31.5c-5.1-9.8-13.7-17-24.2-20.2l-10.5-3.2c-3.1-0.9-6.3,0.7-7.4,3.7L249.5,181
				c-4.7,13-14,23.8-26.1,30.4l-16.5,9c-3.6-4.8-9.3-8-15.7-8h-82.8c-3.3,0-6,2.7-6,6v155.7c0,3.3,2.7,6,6,6h82.8
				c7.2,0,13.5-3.9,16.9-9.7l8.5,3.3c10.8,4.2,22.1,6.4,33.7,6.4H355c14,0,25.5-11.4,25.5-25.5c0-5.2-1.6-10.1-4.3-14.2
				c11.2-2.7,19.5-12.8,19.5-24.7c0-5.4-1.7-10.3-4.5-14.4C401.8,298.3,409.7,288.5,409.7,276.8z M384.2,290.3h-14.1h-27.6h-20.1
				c-3.3,0-6,2.7-6,6s2.7,6,6,6h20.1h27.6c7.4,0,13.5,6,13.5,13.5s-6,13.5-13.5,13.5H355h-30.5h-2c-3.3,0-6,2.7-6,6s2.7,6,6,6h2H355
				c7.4,0,13.5,6,13.5,13.5s-6,13.5-13.5,13.5H250.1c-10.1,0-19.9-1.9-29.3-5.5l-10.2-4v-87.1h-6h-6v89.1c0,4.1-3.4,7.5-7.5,7.5
				h-76.8V224.5h76.8c4.1,0,7.5,3.4,7.5,7.5v26.4h6h6V232l18.5-10.1c14.7-8,25.9-21.1,31.6-36.8l14.6-40.4l5.1,1.5
				c7.4,2.3,13.5,7.3,17.1,14.2c3.6,6.9,4.2,14.8,1.7,22.1l-11.4,33.9c-0.6,1.8-0.3,3.8,0.8,5.4c1.1,1.6,2.9,2.5,4.9,2.5h75.2
				c7.4,0,13.5,6,13.5,13.5s-6,13.5-13.5,13.5h-46.1c-3.3,0-6,2.7-6,6s2.7,6,6,6h20.1c0,0,0,0,0,0h41.6c7.4,0,13.5,6,13.5,13.5
				C397.7,284.3,391.7,290.3,384.2,290.3z"/>
		</g>
	</g>
	<rect x="126.5" y="342.9" class="st1" width="13.2" height="13.2"/>
	<g>
		<g>
			<g>
				<rect x="321.8" y="150.7" class="st1" width="47.2" height="12"/>
				
					<rect x="309.6" y="107.7" transform="matrix(0.7071 -0.7071 0.7071 0.7071 15.5027 264.7759)" class="st1" width="35.5" height="12"/>
			</g>
			<g>
				
					<rect x="196.4" y="150.7" transform="matrix(-1 -4.489266e-11 4.489266e-11 -1 440.012 313.4326)" class="st1" width="47.2" height="12"/>
				
					<rect x="220.2" y="107.7" transform="matrix(-0.7071 -0.7071 0.7071 -0.7071 325.9246 362.3514)" class="st1" width="35.5" height="12"/>
			</g>
		</g>
		<g>
			
				<rect x="272.2" y="102.1" transform="matrix(6.123234e-17 -1 1 6.123234e-17 174.6056 390.7662)" class="st1" width="21" height="12"/>
			
				<rect x="276.7" y="73.5" transform="matrix(6.123234e-17 -1 1 6.123234e-17 203.1607 362.2112)" class="st1" width="11.9" height="12"/>
		</g>
	</g>
</g>
</svg>
