<?xml version="1.0" encoding="utf-8"?>
<!-- Generator: Adobe Illustrator 24.0.2, SVG Export Plug-In . SVG Version: 6.00 Build 0)  -->
<svg version="1.1" id="Capa_1" xmlns="http://www.w3.org/2000/svg" xmlns:xlink="http://www.w3.org/1999/xlink" x="0px" y="0px"
	 viewBox="0 0 512 400" style="enable-background:new 0 0 512 400;" xml:space="preserve">
<style type="text/css">
	.st0{fill:#45AD34;}
</style>
<g>
	<path class="st0" d="M130.1,291.7c-14.6,0-26.4,11.8-26.4,26.4s11.8,26.4,26.4,26.4s26.4-11.8,26.4-26.4S144.6,291.7,130.1,291.7z
		 M130.1,328.7c-5.9,0-10.6-4.8-10.6-10.6s4.8-10.6,10.6-10.6c5.8,0,10.6,4.8,10.6,10.6S135.9,328.7,130.1,328.7z"/>
	<path class="st0" d="M381.9,291.7c-14.6,0-26.4,11.8-26.4,26.4s11.8,26.4,26.4,26.4s26.4-11.8,26.4-26.4S396.5,291.7,381.9,291.7z
		 M381.9,328.7c-5.9,0-10.6-4.8-10.6-10.6s4.8-10.6,10.6-10.6c5.9,0,10.6,4.8,10.6,10.6S387.8,328.7,381.9,328.7z"/>
	<path class="st0" d="M483.1,275.5l-0.7-0.4V244c0-24.8-20.1-44.9-44.9-44.9h-14.6l-34.8-69.8c-7.5-14.9-19.5-22.8-34.8-22.8H301
		V77.3c0-14.6-11.8-26.4-26.4-26.4h-126c-4.3,0-7.9,3.5-7.9,7.9s3.5,7.9,7.9,7.9h125.9c5.9,0,10.6,4.8,10.6,10.6v195.9H174.8
		l-0.4-0.4c-11.9-11.7-27.6-18.1-44.3-18.1s-32.4,6.4-44.3,18.1l-0.4,0.4h-40v-21.3H56c4.3,0,7.9-3.5,7.9-7.9c0-4.3-3.5-7.9-7.9-7.9
		H45.3V77.3c0-5.9,4.8-10.6,10.6-10.6h9.3c4.3,0,7.9-3.5,7.9-7.9s-3.5-7.9-7.9-7.9H56c-14.6,0-26.4,11.8-26.4,26.4v197.8l-0.7,0.4
		c-5.4,3.1-8.6,8.7-8.6,14.8v18.5c0,9.4,7.7,17.1,17.1,17.1H67l0.2,1.2c4.5,31,31.5,54.4,62.8,54.4s58.3-23.4,62.8-54.4l0.2-1.2h126
		l0.2,1.2c4.5,31,31.5,54.4,62.8,54.4s58.3-23.4,62.8-54.4l0.2-1.2h29.6c9.4,0,17.1-7.7,17.1-17.1v-18.5
		C491.7,284.1,488.5,278.6,483.1,275.5z M385.4,159.3l19.9,39.8H338v-39.8H385.4z M300.9,122.2h52.3c3.4,0,13.7,0,20.8,14.2l3.6,7.1
		h-47.5c-4.3,0-7.9,3.5-7.9,7.9V207c0,4.3,3.5,7.9,7.9,7.9h107.4c12.2,0,23.3,7.8,27.5,19.4l0.7,1.9H456c-4.3,0-7.9,3.5-7.9,7.9
		c0,4.3,3.5,7.9,7.9,7.9h10.6v21.3h-40l-0.4-0.4c-11.9-11.7-27.6-18.1-44.3-18.1c-16.7,0-32.4,6.4-44.3,18.1l-0.4,0.4h-36.3
		L300.9,122.2L300.9,122.2z M72.8,290.9c-2.7,5.6-4.5,11.7-5.4,18.1l-0.2,1.2H36.1v-21.3h37.7L72.8,290.9z M130.1,365.8
		c-26.3,0-47.7-21.4-47.7-47.7c0-26.3,21.4-47.7,47.7-47.7s47.7,21.4,47.7,47.7S156.4,365.8,130.1,365.8z M324.7,290.9
		c-2.8,5.8-4.6,11.8-5.5,18.1l-0.2,1.2H193l-0.2-1.2c-0.9-6.2-2.7-12.3-5.4-18.1l-0.9-2h139.1L324.7,290.9z M381.9,365.8
		c-26.3,0-47.7-21.4-47.7-47.7c0-26.3,21.4-47.7,47.7-47.7c26.3,0,47.7,21.4,47.7,47.7S408.2,365.8,381.9,365.8z M475.9,310.2h-31
		l-0.2-1.2c-0.9-6.2-2.7-12.3-5.4-18.1l-0.9-2H476v21.3L475.9,310.2L475.9,310.2z"/>
	<circle class="st0" cx="106.9" cy="58.8" r="7.9"/>
</g>
</svg>
