<?xml version="1.0" encoding="utf-8"?>
<!-- Generator: Adobe Illustrator 24.0.2, SVG Export Plug-In . SVG Version: 6.00 Build 0)  -->
<svg version="1.1" id="Layer_1" xmlns="http://www.w3.org/2000/svg" xmlns:xlink="http://www.w3.org/1999/xlink" x="0px" y="0px"
	 viewBox="0 0 512 512" style="enable-background:new 0 0 512 512;" xml:space="preserve">
<style type="text/css">
	.st0{fill:#45AD34;stroke:#45AD34;stroke-width:3;stroke-miterlimit:10;}
</style>
<g>
	<g>
		<path class="st0" d="M309.4,135.9c-46-23.2-101.4-14.4-137.9,22.1c-42.4,42.4-46.6,110-9.9,157.2c1.3,1.7,3.2,2.5,5.2,2.5
			c1.4,0,2.8-0.5,4-1.4c2.9-2.2,3.4-6.4,1.2-9.2c-32.7-42-28.9-102.1,8.8-139.8c32.4-32.4,81.7-40.3,122.6-19.7
			c3.2,1.6,7.2,0.3,8.9-2.9C313.9,141.5,312.6,137.6,309.4,135.9z"/>
	</g>
</g>
<g>
	<g>
		<path class="st0" d="M362,188.5c-1.6-3.2-5.6-4.6-8.9-2.9c-3.2,1.6-4.6,5.6-2.9,8.9c20.7,40.9,12.7,90.2-19.7,122.6
			c-37.7,37.7-97.8,41.5-139.8,8.8c-2.9-2.2-7-1.7-9.2,1.2c-2.2,2.9-1.7,7,1.2,9.2c21.5,16.7,47.3,25,72.9,25
			c30.7,0,61.2-11.8,84.3-34.9C376.3,289.9,385.2,234.5,362,188.5z"/>
	</g>
</g>
<g>
	<g>
		<path class="st0" d="M345,163.4c-1.6-1.8-3.3-3.7-5.1-5.4c-1.8-1.8-3.6-3.5-5.4-5.1c-2.7-2.4-6.9-2.2-9.3,0.6
			c-2.4,2.7-2.2,6.9,0.6,9.3c1.6,1.5,3.3,3,4.8,4.5c1.6,1.6,3.1,3.2,4.5,4.8c1.3,1.5,3.1,2.2,4.9,2.2c1.6,0,3.1-0.5,4.4-1.7
			C347.1,170.3,347.4,166.2,345,163.4z"/>
	</g>
</g>
<g>
	<g>
		<path class="st0" d="M411.2,254c4.4-7.2,4.4-16.2,0-23.4l-8.7-14.2c-1.1-1.9-1.6-4.1-1.2-6.3l2.6-16.4c1.3-8.4-2.1-16.7-9-21.6
			l-13.4-9.8c-1.8-1.3-3-3.2-3.6-5.3l-3.9-16.2c-2-8.2-8.3-14.6-16.5-16.5l-16.2-3.9c-2.1-0.5-4-1.8-5.3-3.6l-9.8-13.4
			c-5-6.8-13.3-10.3-21.6-9L288.2,97c-2.2,0.3-4.4-0.1-6.3-1.2l-14.2-8.7c-7.2-4.4-16.2-4.4-23.4,0l-14.2,8.7
			c-1.9,1.1-4.1,1.6-6.3,1.2l-16.4-2.6c-8.4-1.3-16.7,2.1-21.6,9l-9.8,13.4c-1.3,1.8-3.2,3-5.3,3.6l-16.2,3.9
			c-8.2,2-14.6,8.3-16.5,16.5l-3.9,16.2c-0.5,2.1-1.8,4-3.6,5.3l-13.4,9.8c-6.8,5-10.3,13.3-9,21.6l2.6,16.4
			c0.3,2.2-0.1,4.4-1.2,6.3l-8.7,14.2c-4.4,7.2-4.4,16.2,0,23.4l8.7,14.2c1.1,1.9,1.6,4.1,1.2,6.3l-2.6,16.4
			c-1.3,8.4,2.1,16.7,9,21.6l13.4,9.8c1.8,1.3,3,3.2,3.6,5.3l3.9,16.2c2,8.2,8.3,14.6,16.5,16.5l6.8,1.6L115.5,464
			c-1,2.2-0.7,4.7,0.7,6.6c1.4,1.9,3.7,2.9,6.1,2.6l36.8-4.4l21.2,30.4c1.2,1.8,3.3,2.8,5.4,2.8c0.2,0,0.4,0,0.6,0
			c2.4-0.2,4.4-1.7,5.4-3.9L238.4,394l5.9,3.6c3.6,2.2,7.6,3.3,11.7,3.3c4,0,8.1-1.1,11.7-3.3l6.1-3.7l46.7,104.3
			c1,2.2,3,3.6,5.4,3.9c0.2,0,0.4,0,0.6,0c2.1,0,4.2-1,5.4-2.8l21.2-30.4l36.8,4.4c2.4,0.3,4.7-0.7,6.1-2.6c1.4-1.9,1.7-4.4,0.7-6.6
			L351,362l6.5-1.6c8.2-2,14.6-8.3,16.5-16.5l3.9-16.2c0.5-2.1,1.8-4,3.6-5.3l13.4-9.8c6.8-5,10.3-13.3,9-21.6l-2.6-16.4
			c-0.3-2.2,0.1-4.4,1.2-6.3L411.2,254z M184.5,482.1L167.7,458c-1.4-2-3.8-3.1-6.2-2.8l-29.1,3.5l41.6-92.9c0.8,0.6,1.4,1.2,2,2
			l9.8,13.4c0.9,1.3,2,2.4,3.1,3.5L167,433.6c-1.5,3.3,0,7.2,3.3,8.7c0.9,0.4,1.8,0.6,2.7,0.6c2.5,0,4.9-1.5,6-3.9l21.8-48.7
			c2.1,0.3,4.4,0.3,6.6-0.1l16.4-2.6c1-0.2,2-0.1,2.9,0L184.5,482.1z M379.9,458.7l-29.1-3.5c-2.4-0.3-4.8,0.8-6.2,2.8l-16.8,24.1
			l-42.3-94.4c0.9-0.1,1.8-0.1,2.7,0l16.4,2.6c2.3,0.4,4.6,0.4,6.8,0l21.9,48.8c1.1,2.4,3.5,3.9,6,3.9c0.9,0,1.8-0.2,2.7-0.6
			c3.3-1.5,4.8-5.4,3.3-8.7l-22-49.1c1.1-1,2-2.1,2.9-3.3l9.8-13.4c0.6-0.8,1.4-1.6,2.2-2.2L379.9,458.7z M400,247.2l-8.7,14.2
			c-2.8,4.5-3.8,9.9-3,15.2l2.6,16.4c0.5,3.5-0.9,6.9-3.7,8.9l-13.4,9.8c-4.3,3.1-7.4,7.7-8.6,12.9l-3.9,16.2
			c-0.8,3.4-3.4,6-6.8,6.8l-16.2,3.9c-5.2,1.3-9.7,4.3-12.9,8.6l-9.8,13.4c-2.1,2.8-5.5,4.2-8.9,3.7l-16.4-2.6
			c-5.2-0.8-10.6,0.2-15.2,3l-14.2,8.7c-3,1.8-6.7,1.8-9.6,0l-14.2-8.7c-3.5-2.2-7.6-3.3-11.7-3.3c-1.2,0-2.3,0.1-3.5,0.3l-16.4,2.6
			c-3.5,0.5-6.9-0.9-8.9-3.7l-9.8-13.4c-3.1-4.3-7.7-7.4-12.9-8.6l-16.2-3.9c-3.4-0.8-6-3.4-6.8-6.8l-3.9-16.2
			c-1.3-5.2-4.3-9.7-8.6-12.9l-13.4-9.8c-2.8-2.1-4.2-5.5-3.7-8.9l2.6-16.4c0.8-5.2-0.2-10.6-3-15.2l-8.7-14.2c-1.8-3-1.8-6.7,0-9.6
			l8.7-14.2c2.8-4.5,3.8-9.9,3-15.2l-2.6-16.4c-0.5-3.5,0.9-6.9,3.7-8.9l13.4-9.8c4.3-3.1,7.4-7.7,8.6-12.9l3.9-16.2
			c0.8-3.4,3.4-6,6.8-6.8l16.2-3.9c5.2-1.3,9.7-4.3,12.9-8.6l9.8-13.4c2.1-2.8,5.5-4.2,8.9-3.7l16.4,2.6c5.3,0.8,10.6-0.2,15.2-3
			l14.2-8.7c3-1.8,6.7-1.8,9.6,0L275,107c4.5,2.8,9.9,3.8,15.2,3l16.4-2.6c3.5-0.5,6.9,0.9,8.9,3.7l9.8,13.4
			c3.1,4.3,7.7,7.4,12.9,8.6l16.2,3.9c3.4,0.8,6,3.4,6.8,6.8l3.9,16.2c1.3,5.2,4.3,9.7,8.6,12.9l13.4,9.8c2.8,2.1,4.2,5.5,3.7,8.9
			l-2.6,16.4c-0.8,5.2,0.2,10.6,3,15.2l8.7,14.2C401.8,240.5,401.8,244.2,400,247.2z"/>
	</g>
</g>
<g>
	<g>
		<path class="st0" d="M333.1,221.8c-1.5-4.5-5.3-7.6-9.9-8.1l-39.7-4.7l-16.7-36.3c-2-4.3-6.1-6.9-10.8-6.9
			c-4.7,0-8.8,2.7-10.8,6.9L228.5,209l-39.7,4.7c-4.7,0.6-8.5,3.7-9.9,8.1c-1.5,4.5-0.2,9.2,3.2,12.4l29.3,27.1l-7.8,39.2
			c-0.9,4.6,0.9,9.2,4.7,12c2.1,1.5,4.5,2.3,7,2.3c2,0,4-0.5,5.8-1.5l34.8-19.5l34.8,19.5c4.1,2.3,9,2,12.8-0.8s5.6-7.3,4.7-12
			l-7.8-39.2l29.3-27.1C333.3,231.1,334.6,226.3,333.1,221.8z M288.9,254.2c-1.7,1.6-2.4,3.9-2,6.1l8,40.1l-35.7-20
			c-1-0.6-2.1-0.8-3.2-0.8c-1.1,0-2.2,0.3-3.2,0.8l-35.7,20l8-40.1c0.4-2.2-0.3-4.6-2-6.1l-30-27.7l40.6-4.8
			c2.3-0.3,4.2-1.7,5.2-3.8l17.1-37.1l17.1,37.1c1,2.1,2.9,3.5,5.2,3.8l40.6,4.8L288.9,254.2z"/>
	</g>
</g>
</svg>
