<?xml version="1.0" encoding="utf-8"?>
<!-- Generator: Adobe Illustrator 24.0.2, SVG Export Plug-In . SVG Version: 6.00 Build 0)  -->
<svg version="1.1" id="Capa_1" xmlns="http://www.w3.org/2000/svg" xmlns:xlink="http://www.w3.org/1999/xlink" x="0px" y="0px"
	 viewBox="0 0 512 512" style="enable-background:new 0 0 512 512;" xml:space="preserve">
<style type="text/css">
	.st0{fill:#45AD34;}
</style>
<g>
	<path class="st0" d="M453.7,245.3c-5-35.6-35.9-62.4-71.9-62.4h-16.1v15.4h16.1c31.6,0,57.3,25.7,57.3,57.3s-25.7,57.3-57.3,57.3
		h-16.4v-99H350v98.9H113.4c-31.5-0.1-57.2-25.8-57.2-57.3c0-31.6,25.7-57.3,57.3-57.3h236v-15.4h-236c-40.1,0-72.6,32.6-72.6,72.6
		c0,40.1,32.6,72.7,72.6,72.7h268.4c36,0,66.9-26.8,71.9-62.4l0.3-2.2h18v-16.3h-18L453.7,245.3z"/>
	<rect x="118.7" y="220.3" class="st0" width="15.4" height="15.4"/>
	<rect x="118.7" y="255.6" class="st0" width="15.4" height="39"/>
	<path class="st0" d="M247.5,287.7c17.7,0,32.1-14.4,32.1-32.1c0-17.7-14.4-32.1-32.1-32.1c-17.7,0-32.1,14.4-32.1,32.1
		C215.4,273.3,229.8,287.7,247.5,287.7z M233.8,242c3.7-3.7,8.5-5.7,13.7-5.7c10.6,0,19.2,8.6,19.2,19.3c0,10.6-8.6,19.2-19.2,19.2
		c-10.6,0-19.2-8.6-19.2-19.2C228.2,250.5,230.1,245.7,233.8,242z"/>
</g>
<g>
	<path class="st0" d="M453.7,407.8c-5-35.6-35.9-62.4-71.9-62.4h-16.1v15.4h16.1c31.6,0,57.3,25.7,57.3,57.3s-25.7,57.3-57.3,57.3
		h-16.4v-99H350v98.9H113.4c-31.5-0.1-57.2-25.8-57.2-57.3c0-31.6,25.7-57.3,57.3-57.3h236v-15.4h-236c-40.1,0-72.6,32.6-72.6,72.6
		c0,40.1,32.6,72.7,72.6,72.7h268.4c36,0,66.9-26.8,71.9-62.4l0.3-2.2h18v-16.3h-18L453.7,407.8z"/>
	<rect x="118.7" y="382.9" class="st0" width="15.4" height="15.4"/>
	<rect x="118.7" y="418.1" class="st0" width="15.4" height="39"/>
	<path class="st0" d="M247.5,450.3c17.7,0,32.1-14.4,32.1-32.1c0-17.7-14.4-32.1-32.1-32.1c-17.7,0-32.1,14.4-32.1,32.1
		C215.4,435.9,229.8,450.3,247.5,450.3z M233.8,404.6c3.7-3.7,8.5-5.7,13.7-5.7c10.6,0,19.2,8.6,19.2,19.3
		c0,10.6-8.6,19.2-19.2,19.2c-10.6,0-19.2-8.6-19.2-19.2C228.2,413,230.1,408.2,233.8,404.6z"/>
</g>
</svg>
