<?xml version="1.0" encoding="utf-8"?>
<!-- Generator: Adobe Illustrator 24.0.2, SVG Export Plug-In . SVG Version: 6.00 Build 0)  -->
<svg version="1.1" id="Layer_3" xmlns="http://www.w3.org/2000/svg" xmlns:xlink="http://www.w3.org/1999/xlink" x="0px" y="0px"
	 viewBox="0 0 512 512" style="enable-background:new 0 0 512 512;" xml:space="preserve">
<style type="text/css">
	.st0{fill:#45AD34;}
	.st1{fill:#202C54;}
</style>
<g>
	<path class="st0" d="M451.8,286.1h-56l60.7-60.7c2.6-2.6,2.6-6.7,0-9.2l-124-124c-2.6-2.6-6.7-2.6-9.2,0L129.3,286.1H60.2
		c-3.6,0-6.5,2.9-6.5,6.5v169.7c0,3.6,2.9,6.5,6.5,6.5h95.2l24.2,24.2c1.3,1.3,2.9,1.9,4.6,1.9s3.3-0.6,4.6-1.9l24.2-24.2h238.8
		c3.6,0,6.5-2.9,6.5-6.5V292.7C458.3,289.1,455.4,286.1,451.8,286.1z M327.8,106.1l114.8,114.8l-65.3,65.3h-49.8
		c-1.5-16.7-8.7-32.2-20.7-44.2c-28-28-73.5-28-101.5,0c-12,12-19.2,27.5-20.7,44.2h-36.8L327.8,106.1z M224.8,286.1
		c-0.9-4.2,0.3-8.8,3.5-11.9l11.9,11.9H224.8z M295.3,286.1c-0.7-0.9-1.5-1.9-2.3-2.7c-10.2-10.2-26.7-10.2-36.9,0L237.5,265
		c4.9-4.9,13.5-4.9,18.5,0l9.2-9.2c-4.9-4.9-11.5-7.6-18.5-7.6s-13.5,2.7-18.5,7.6l0,0l-4.6-4.6l-9.2,9.2l4.6,4.6
		c-5.7,5.7-8.3,13.5-7.5,21.2h-14c1.5-13.2,7.3-25.5,16.8-35c22.9-22.9,60.2-22.9,83.1,0c9.5,9.5,15.4,21.8,16.8,35L295.3,286.1
		L295.3,286.1z M184.2,479.2l-10.4-10.4h20.7L184.2,479.2z M445.3,455.8H66.7V299.2h378.5V455.8z"/>
	<path class="st0" d="M236.4,397.1h-13.1c0,14.4,11.7,26.1,26.1,26.1v6.5h13.1v-6.5c14.4,0,26.1-11.7,26.1-26.1
		c0-14.4-11.7-26.1-26.1-26.1v-26.1c7.2,0,13.1,5.9,13.1,13.1h13.1c0-14.4-11.7-26.1-26.1-26.1v-6.5h-13.1v6.5
		c-14.4,0-26.1,11.7-26.1,26.1c0,14.4,11.7,26.1,26.1,26.1v26.1C242.3,410.2,236.4,404.3,236.4,397.1z M236.4,357.9
		c0-7.2,5.9-13.1,13.1-13.1V371C242.3,371,236.4,365.1,236.4,357.9z M262.5,384c7.2,0,13.1,5.9,13.1,13.1c0,7.2-5.9,13.1-13.1,13.1
		V384z"/>
	<path class="st0" d="M256,449.3c39.6,0,71.8-32.2,71.8-71.8s-32.2-71.8-71.8-71.8s-71.8,32.2-71.8,71.8S216.4,449.3,256,449.3z
		 M256,318.8c32.4,0,58.7,26.4,58.7,58.7s-26.3,58.7-58.7,58.7s-58.7-26.4-58.7-58.7S223.6,318.8,256,318.8z"/>
	<path class="st0" d="M432.2,436.3V318.8c0-3.6-2.9-6.5-6.5-6.5h-78.3v13.1h71.8v104.4h-71.8v13.1h78.3
		C429.3,442.8,432.2,439.9,432.2,436.3z"/>
	<path class="st0" d="M86.3,442.8h78.3v-13.1H92.8V325.3h71.8v-13.1H86.3c-3.6,0-6.5,2.9-6.5,6.5v117.5
		C79.8,439.9,82.7,442.8,86.3,442.8z"/>
	<path class="st0" d="M347.4,403.6h13.1v13.1h-13.1V403.6z"/>
	<path class="st0" d="M373.5,403.6h13.1v13.1h-13.1V403.6z"/>
	<path class="st0" d="M347.4,338.4h13.1v13.1h-13.1V338.4z"/>
	<path class="st0" d="M373.5,338.4h13.1v13.1h-13.1V338.4z"/>
	<path class="st0" d="M329.6,145.3l73.8,73.8l-50.8,50.8l9.2,9.2l55.4-55.4c2.6-2.6,2.6-6.7,0-9.2l-83.1-83.1
		c-2.4-2.4-6.8-2.4-9.2,0l-55.4,55.4l9.2,9.2L329.6,145.3z"/>
	<path class="st0" d="M334.1,251.4l9.2-9.2l9.2,9.2l-9.2,9.2L334.1,251.4z"/>
	<path class="st0" d="M352.6,233l9.2-9.2l9.2,9.2l-9.2,9.2L352.6,233z"/>
	<path class="st0" d="M288,205.3l9.2-9.2l9.2,9.2l-9.2,9.2L288,205.3z"/>
	<path class="st0" d="M306.5,186.8l9.2-9.2l9.2,9.2l-9.2,9.2L306.5,186.8z"/>
	<path class="st0" d="M125.5,338.4h13.1v13.1h-13.1V338.4z"/>
	<path class="st0" d="M151.6,338.4h13.1v13.1h-13.1V338.4z"/>
	<path class="st0" d="M125.5,403.6h13.1v13.1h-13.1V403.6z"/>
	<path class="st0" d="M151.6,403.6h13.1v13.1h-13.1V403.6z"/>
</g>
</svg>
