<?xml version="1.0" encoding="utf-8"?>
<!-- Generator: Adobe Illustrator 24.0.2, SVG Export Plug-In . SVG Version: 6.00 Build 0)  -->
<svg version="1.1" id="Capa_1" xmlns="http://www.w3.org/2000/svg" xmlns:xlink="http://www.w3.org/1999/xlink" x="0px" y="0px"
	 viewBox="0 0 512 400" style="enable-background:new 0 0 512 400;" xml:space="preserve">
<style type="text/css">
	.st0{fill:#45AD34;}
	.st1{font-family:'MyriadPro-Regular';}
	.st2{font-size:12px;}
</style>
<g>
	<g>
		<path class="st0" d="M492.1,209.8h-21.3c-1.2-2.1-2.5-4.1-3.9-6c-0.2-0.3-0.4-0.6-0.7-0.9c-10.6-13.8-27.3-22.8-46-22.8h-22.1
			c-2.9,0-5.3,2.4-5.3,5.3s2.4,5.3,5.3,5.3h22.1c11.2,0,21.5,3.9,29.6,10.4h-73.6c-2.7,0-5.2,1.4-6.5,3.8c-1.3,2.3-1.3,5.2,0,7.5
			l40.6,69.9c2.5,4.3,6.6,7.5,11.3,8.9c0.3,0.1,0.5,0.2,0.8,0.2c1.5,0.4,3.1,0.6,4.7,0.6h40.4v11.9h-9.3c-6.5,0-11.8,5.3-11.8,11.8
			v13.5c0,6.5,5.3,11.8,11.8,11.8h9.3v15.7h-28.9l-87.6-151c-1.6-2.7-4.5-4.4-7.7-4.4H33.5c-4.6,0-8.4,3.8-8.4,8.4v39h-9.3v-57.8
			h357.6c2.9,0,5.3-2.4,5.3-5.3s-2.4-5.3-5.3-5.3H115.6l-12.7-16.5c-3.1-4-8-6.4-13-6.4H44.6c-7.7,0-13.9,6.2-13.9,13.9v9H14.1
			c-4.9,0-9,4-9,9v169.2c0,4.9,4,9,9,9h24.5c4.9,13.9,18.1,23.9,33.7,23.9s28.8-10,33.7-23.9h13c2.9,0,5.3-2.4,5.3-5.3
			s-2.4-5.3-5.3-5.3h-11c0-0.4,0-0.7,0-1.1c0-19.7-16-35.7-35.7-35.7s-35.7,16-35.7,35.7c0,0.4,0,0.7,0,1.1H15.8v-97.4h354
			l56.5,97.4h-27.4c0-0.4,0-0.7,0-1.1c0-19.7-16-35.7-35.7-35.7s-35.7,16-35.7,35.7c0,0.4,0,0.7,0,1.1h-93c-2.9,0-5.3,2.4-5.3,5.3
			s2.4,5.3,5.3,5.3h95c4.9,13.9,18.1,23.9,33.7,23.9s28.8-10,33.7-23.9c8.5,0,72,0,72.3,0c3.7,0,6.9-2.3,8.3-5.5
			c0.5-1.1,0.7-2.2,0.7-3.5V238.1c0-6.1-1-12.1-2.8-17.6H492c1.8,0,3.3,1.5,3.3,3.3v15.9c0,2.4-0.9,4.6-2.4,6.4l-2,2.3
			c-1.9,2.2-1.7,5.6,0.5,7.5c1,0.9,2.3,1.3,3.5,1.3c1.5,0,3-0.6,4-1.8l2-2.3c3.2-3.7,5-8.5,5-13.4v-15.9
			C506,216,499.7,209.8,492.1,209.8L492.1,209.8z M467.5,330.3h-9.3c-0.6,0-1.1-0.5-1.1-1.1v-13.5c0-0.6,0.5-1.1,1.1-1.1h9.3V330.3z
			 M41.3,171.1c0-1.8,1.5-3.3,3.3-3.3h45.3c1.8,0,3.5,0.8,4.6,2.3l7.7,10H41.3V171.1z M72.3,330.4c13.8,0,25.1,11.2,25.1,25.1
			c0,13.8-11.2,25.1-25.1,25.1s-25.1-11.2-25.1-25.1C47.3,341.6,58.5,330.4,72.3,330.4z M123.6,211.8H305v36.7H123.6V211.8z
			 M112.9,248.6h-44v-36.7H113L112.9,248.6L112.9,248.6z M35.8,211.8h22.5v36.7H35.8V211.8z M315.7,248.6v-36.7h26.6l21.3,36.7
			H315.7z M363.2,380.5c-13.8,0-25.1-11.2-25.1-25.1c0-13.8,11.2-25.1,25.1-25.1c13.8,0,25.1,11.2,25.1,25.1
			C388.3,369.3,377,380.5,363.2,380.5z M381.7,211.8h36.4v62.8L381.7,211.8z M428.8,281.4v-69.6h30.8c5,7.5,8,16.5,8,26.2v43.4
			H428.8L428.8,281.4z"/>
		<path class="st0" d="M72.3,371.7c8.9,0,16.2-7.3,16.2-16.2s-7.3-16.2-16.2-16.2s-16.2,7.3-16.2,16.2S63.4,371.7,72.3,371.7z
			 M72.3,349.9c3.1,0,5.6,2.5,5.6,5.6s-2.5,5.6-5.6,5.6s-5.6-2.5-5.6-5.6C66.8,352.4,69.3,349.9,72.3,349.9z"/>
		<path class="st0" d="M363.2,339.2c-8.9,0-16.2,7.3-16.2,16.2s7.3,16.2,16.2,16.2s16.2-7.3,16.2-16.2S372.1,339.2,363.2,339.2z
			 M363.2,361c-3.1,0-5.6-2.5-5.6-5.6s2.5-5.6,5.6-5.6s5.6,2.5,5.6,5.6C368.8,358.5,366.3,361,363.2,361z"/>
	</g>
	<g>
		<path class="st0" d="M206.8,356.6h-19.2c0-0.4,0-0.7,0-1.1c0-19.7-16-35.7-35.7-35.7s-35.7,16-35.7,35.7c0,0.4,0,0.7,0,1.1l0,0
			c0,0-2.2,3.3,1.1,8l0.9,2.6c4.9,13.9,18.1,23.9,33.7,23.9s28.8-10,33.7-23.9h21.2c2.9,0,5.3-2.4,5.3-5.3S209.7,356.6,206.8,356.6z
			 M151.9,380.5c-13.8,0-25.1-11.2-25.1-25.1c0-13.8,11.2-25.1,25.1-25.1c13.8,0,25.1,11.2,25.1,25.1S165.7,380.5,151.9,380.5z"/>
		<path class="st0" d="M151.9,339.2c-8.9,0-16.2,7.3-16.2,16.2s7.3,16.2,16.2,16.2s16.2-7.3,16.2-16.2S160.9,339.2,151.9,339.2z
			 M151.9,361c-3.1,0-5.6-2.5-5.6-5.6s2.5-5.6,5.6-5.6s5.6,2.5,5.6,5.6S155,361,151.9,361z"/>
	</g>
</g>
<text transform="matrix(1 0 0 1 245.8516 204.022)" class="st0 st1 st2">--&gt;</text>
</svg>
