<?xml version="1.0" encoding="utf-8"?>
<!-- Generator: Adobe Illustrator 24.0.2, SVG Export Plug-In . SVG Version: 6.00 Build 0)  -->
<svg version="1.1" id="Layer_5" xmlns="http://www.w3.org/2000/svg" xmlns:xlink="http://www.w3.org/1999/xlink" x="0px" y="0px"
	 viewBox="0 0 512 512" style="enable-background:new 0 0 512 512;" xml:space="preserve">
<style type="text/css">
	.st0{fill:#45AD34;}
</style>
<g>
	<path class="st0" d="M333.4,393.6c-20.3,0-36.7,16.5-36.7,36.7c0,20.3,16.5,36.7,36.7,36.7s36.7-16.5,36.7-36.7
		C370.1,410,353.6,393.6,333.4,393.6z M333.4,455.5c-13.9,0-25.1-11.3-25.1-25.1c0-13.9,11.3-25.1,25.1-25.1s25.1,11.3,25.1,25.1
		C358.5,444.2,347.2,455.5,333.4,455.5z"/>
	<path class="st0" d="M348.9,172.6L348.9,172.6l-80.7,105.5l-37.9,7.6c-24.3,4.9-42,26.4-42,51.2v25.8h-9.7c-8.9,0-16.9,5.7-20,14.2
		l-0.5,1.3H138v-1.9c0-20.3-16.5-36.7-36.7-36.7c-6.5,0-12.7,1.7-18.4,5l-1,0.6l-1-0.6c-5.7-3.3-11.8-5-18.4-5
		c-20.3,0-36.7,16.5-36.7,36.7c0,5.9,1.5,11.9,4.4,17.2l0.7,1.3l-1.1,1c-7.6,7-11.8,16.5-11.8,26.8c0,20.3,16.5,36.7,36.7,36.7
		c7.9,0,15.7-2.7,22-7.5l1.2-0.9l1.2,0.9c6.3,4.8,14.2,7.5,22,7.5c20.3,0,36.7-16.5,36.7-36.7v-1.9h20.2l0.5,1.3
		c3,8.5,11,14.2,20,14.2h14.3l0.5,1.1c8.6,18.1,27.1,29.8,47.1,29.8h36l0.6,0.9c12.6,18.8,33.7,30.1,56.2,30.1
		c22.6,0,43.6-11.2,56.2-30.1l0.6-0.9h103.7V146h-91.3C381.7,146,361.6,155.9,348.9,172.6z M157.4,409h-30.9v13.5
		c0,13.9-11.3,25.1-25.1,25.1c-7.2,0-13.9-3.1-18.8-8.7l-4.4-5l-4.4,5c-4.9,5.6-11.6,8.7-18.8,8.7c-13.9,0-25.1-11.3-25.1-25.1
		c0-8.9,4.6-16.9,12.4-21.5l5.9-3.5l-4.4-5.2c-2.8-3.3-6.1-8.8-6.1-16.2c0-13.9,11.3-25.1,25.1-25.1c5.7,0,11.1,2,15.7,5.7l3.6,2.9
		l3.7-3c4.6-3.7,10-5.7,15.7-5.7c13.9,0,25.1,11.3,25.1,25.1v13.5h30.9V409z M178.6,424.5c-5.3,0-9.7-4.3-9.7-9.7v-30.9
		c0-5.3,4.3-9.7,9.7-9.7h9.7v40.6c0,2.2,0.2,4.6,0.6,7.5l0.3,2.2H178.6z M199.9,343.3h17.4c9.6,0,17.4,7.8,17.4,17.4
		c0,9.6-7.8,17.4-17.4,17.4h-17.5V343.3z M333.4,486.4c-30.9,0-56.1-25.2-56.1-56.1s25.2-56.1,56.1-56.1s56.1,25.2,56.1,56.1
		S364.3,486.4,333.4,486.4z M482.3,316.2h-30.9v11.6h30.9v127.6H432v-25.1c0-54.4-44.2-98.6-98.6-98.6H316v-34.8h166.3V316.2z
		 M482.3,285.3H321.4l61.6-86.2c4.7-6.6,12.4-10.5,20.5-10.5h78.8V285.3z M482.3,176.9h-78.8c-11.8,0-23,5.8-29.9,15.4l-69.2,96.9
		v54.1h29c48,0,87,39,87,87v25.1h-24.2l0.9-2.6c2.6-7.4,4-15,4-22.6c0-37.3-30.4-67.7-67.7-67.7s-67.7,30.4-67.7,67.7
		c0,7.6,1.3,15.2,4,22.6l0.9,2.6h-30c-22.4,0-40.6-18.2-40.6-40.6v-25.1h17.5c16,0,29-13,29-29c0-16-13-29-29-29h-17.1l0.4-2.3
		c3-16.1,15.9-29.2,31.9-32.4l42.2-8.4l83.3-109c10.5-13.8,27.2-22,44.6-22h79.7V176.9z"/>
	<rect x="374" y="254.3" class="st0" width="58" height="11.6"/>
	<rect x="451.3" y="254.3" class="st0" width="11.6" height="11.6"/>
</g>
</svg>
