<?xml version="1.0" encoding="utf-8"?>
<!-- Generator: Adobe Illustrator 24.0.2, SVG Export Plug-In . SVG Version: 6.00 Build 0)  -->
<svg version="1.1" id="Capa_1" xmlns="http://www.w3.org/2000/svg" xmlns:xlink="http://www.w3.org/1999/xlink" x="0px" y="0px"
	 viewBox="0 0 512 400" style="enable-background:new 0 0 512 400;" xml:space="preserve">
<style type="text/css">
	.st0{fill:#202C54;}
</style>
<g>
	<g>
		<path class="st0" d="M106.2,309.3c-13,0-23.5,10.5-23.5,23.5s10.5,23.5,23.5,23.5s23.5-10.5,23.5-23.5S119.1,309.3,106.2,309.3z
			 M106.2,340.7c-4.3,0-7.8-3.5-7.8-7.8s3.5-7.8,7.8-7.8s7.8,3.5,7.8,7.8S110.5,340.7,106.2,340.7z"/>
	</g>
</g>
<g>
	<g>
		<path class="st0" d="M231.5,309.3c-13,0-23.5,10.5-23.5,23.5s10.5,23.5,23.5,23.5s23.5-10.5,23.5-23.5S244.5,309.3,231.5,309.3z
			 M231.5,340.7c-4.3,0-7.8-3.5-7.8-7.8s3.5-7.8,7.8-7.8s7.8,3.5,7.8,7.8S235.8,340.7,231.5,340.7z"/>
	</g>
</g>
<g>
	<g>
		<path class="st0" d="M403.8,309.3c-13,0-23.5,10.5-23.5,23.5s10.5,23.5,23.5,23.5s23.5-10.5,23.5-23.5S416.8,309.3,403.8,309.3z
			 M403.8,340.7c-4.3,0-7.8-3.5-7.8-7.8s3.5-7.8,7.8-7.8s7.8,3.5,7.8,7.8S408.2,340.7,403.8,340.7z"/>
	</g>
</g>
<g>
	<g>
		<path class="st0" d="M489.2,172.7L457.9,110c-1.3-2.7-4.1-4.3-7.1-4.3H317.7V82.2c0-4.3-3.5-7.8-7.8-7.8h-282
			c-4.3,0-7.8,3.5-7.8,7.8v250.7c0,4.3,3.5,7.8,7.8,7.8H52c4.3,29.9,32.1,50.7,62,46.4c24.1-3.5,43-22.4,46.4-46.4h16.9
			c4.3,29.9,32.1,50.7,62,46.4c24.1-3.5,43-22.4,46.4-46.4h63.9c4.3,29.9,32.1,50.7,62,46.4c24.1-3.5,43-22.4,46.4-46.4h24.1
			c4.3,0,7.8-3.5,7.8-7.8V176.2C490,175,489.7,173.8,489.2,172.7z M106.2,372C84.5,372,67,354.5,67,332.8s17.5-39.2,39.2-39.2
			s39.2,17.5,39.2,39.2C145.3,354.5,127.8,372,106.2,372z M231.5,372c-21.6,0-39.2-17.5-39.2-39.2s17.5-39.2,39.2-39.2
			s39.2,17.5,39.2,39.2C270.6,354.5,253.1,372,231.5,372z M302,325h-16.3c-4.3-29.9-32.1-50.7-62-46.4c-24.1,3.5-43,22.4-46.4,46.4
			h-16.9c-4.3-29.9-32.1-50.7-62-46.4C74.3,282,55.4,300.9,52,325H35.7v-62.7H302V325z M302,246.7H35.7V90H302V246.7z M403.8,372
			c-21.6,0-39.2-17.5-39.2-39.2s17.5-39.2,39.2-39.2c21.6,0,39.2,17.5,39.2,39.2S425.5,372,403.8,372z M474.3,262.3h-15.7v-15.7
			h15.7V262.3z M474.3,231h-23.5c-4.3,0-7.8,3.5-7.8,7.8v31.3c0,4.3,3.5,7.8,7.8,7.8h23.5v47H458c-4.3-29.9-32.1-50.7-62-46.4
			c-24.1,3.5-43,22.4-46.4,46.4h-32V121.3H446l28.3,56.7V231z"/>
	</g>
</g>
<g>
	<g>
		<path class="st0" d="M450,172.7l-15.7-31.3c-1.3-2.7-4.1-4.3-7.1-4.3H341c-4.3,0-7.8,3.5-7.8,7.8v62.7c0,4.3,3.5,7.8,7.8,7.8h102
			c4.3,0,7.8-3.5,7.8-7.8v-31.3C450.8,175,450.6,173.8,450,172.7z M435.2,199.7H349v-47h73.5l12.7,25.3V199.7z"/>
	</g>
</g>
<g>
	<g>
		<path class="st0" d="M372.5,231h-31.3c-4.3,0-7.8,3.5-7.8,7.8s3.5,7.8,7.8,7.8h31.3c4.3,0,7.8-3.5,7.8-7.8S376.8,231,372.5,231z"
			/>
	</g>
</g>
<g>
	<g>
		<path class="st0" d="M137.5,137H59.2c-4.3,0-7.8,3.5-7.8,7.8s3.5,7.8,7.8,7.8h78.3c4.3,0,7.8-3.5,7.8-7.8S141.8,137,137.5,137z"/>
	</g>
</g>
<g>
	<g>
		<path class="st0" d="M168.8,168.3H90.5c-4.3,0-7.8,3.5-7.8,7.8c0,4.3,3.5,7.8,7.8,7.8h78.3c4.3,0,7.8-3.5,7.8-7.8
			C176.7,171.8,173.2,168.3,168.8,168.3z"/>
	</g>
</g>
<g>
	<g>
		<path class="st0" d="M278.5,105.7c-4.3,0-7.8,3.5-7.8,7.8v15.7c0,4.3,3.5,7.8,7.8,7.8s7.8-3.5,7.8-7.8v-15.7
			C286.3,109.2,282.8,105.7,278.5,105.7z"/>
	</g>
</g>
<g>
	<g>
		<path class="st0" d="M278.5,152.7c-4.3,0-7.8,3.5-7.8,7.8v62.7c0,4.3,3.5,7.8,7.8,7.8s7.8-3.5,7.8-7.8v-62.7
			C286.3,156.2,282.8,152.7,278.5,152.7z"/>
	</g>
</g>
</svg>
