<?xml version="1.0" encoding="utf-8"?>
<!-- Generator: Adobe Illustrator 24.0.2, SVG Export Plug-In . SVG Version: 6.00 Build 0)  -->
<svg version="1.1" id="Capa_1" xmlns="http://www.w3.org/2000/svg" xmlns:xlink="http://www.w3.org/1999/xlink" x="0px" y="0px"
	 viewBox="0 0 512 400" style="enable-background:new 0 0 512 400;" xml:space="preserve">
<style type="text/css">
	.st0{fill:#202C54;}
</style>
<g>
	<g>
		<path class="st0" d="M134.2,311.7c-4.1,0-7.4,3.3-7.4,7.4c0,9-7.3,16.4-16.4,16.4S94,328.1,94,319.1s7.3-16.4,16.4-16.4
			c4.1,0,7.4-3.3,7.4-7.4s-3.3-7.4-7.4-7.4c-17.2,0-31.2,14-31.2,31.2s14,31.2,31.2,31.2s31.2-14,31.2-31.2
			C141.6,315,138.3,311.7,134.2,311.7z"/>
	</g>
</g>
<g>
	<g>
		<path class="st0" d="M445.1,312.7c-4.1,0-7.4,3.3-7.4,7.4c0,9-7.3,16.4-16.4,16.4s-16.4-7.3-16.4-16.4s7.3-16.4,16.4-16.4
			c4.1,0,7.4-3.3,7.4-7.4s-3.3-7.4-7.4-7.4c-17.2,0-31.2,14-31.2,31.2s14,31.2,31.2,31.2s31.2-14,31.2-31.2
			C452.5,316,449.2,312.7,445.1,312.7z"/>
	</g>
</g>
<g>
	<g>
		<path class="st0" d="M488.6,183.8L411,170.9l-34.2-89h5.1c4.1,0,7.4-3.3,7.4-7.4s-3.3-7.4-7.4-7.4H270.8
			c-12.8,0-23.3,10.4-23.3,23.3V178H9.4c-4.1,0-7.4,3.3-7.4,7.4v110.9c0,12.8,10.4,23.3,23.3,23.3h24.3c0,0.2,0,0.3,0,0.5
			c0,34.7,28.2,62.9,62.9,62.9s62.9-28.2,62.9-62.9c0-0.2,0-0.3,0-0.5h183.3c0,0.2,0,0.3,0,0.5c0,34.7,28.2,62.9,62.9,62.9
			s62.9-28.2,62.9-62.9c0-0.2,0-0.3,0-0.5h8.4c8.5,0,15.3-6.9,15.3-15.3v-97.5C508,195.3,499.8,185.7,488.6,183.8z M394.7,170.1
			h-84.3c-4.6,0-8.4-3.8-8.4-8.4v-48h71L394.7,170.1z M112.4,368.1c-26.5,0-48-21.6-48-48c0-26.5,21.6-48,48-48
			c26.5,0,48,21.6,48,48C160.4,346.6,138.9,368.1,112.4,368.1z M421.4,368.1c-26.5,0-48-21.6-48-48c0-26.5,21.6-48,48-48
			c26.5,0,48,21.6,48,48C469.4,346.6,447.9,368.1,421.4,368.1z M493.2,304.2c0,0.3-0.2,0.5-0.5,0.5h-10.3
			c-6.9-27.3-31.6-47.5-61-47.5s-54.1,20.3-61,47.5h-187c-6.9-27.3-31.6-47.5-61-47.5s-54.1,20.3-61,47.5H25.3
			c-4.6,0-8.4-3.8-8.4-8.4V192.8h230.8v87.7c0,4.1,3.3,7.4,7.4,7.4s7.4-3.3,7.4-7.4V90.3c0-4.6,3.8-8.4,8.4-8.4h90l6.5,16.9h-72.7
			c-4.1,0-7.4,3.3-7.4,7.4v55.5c0,12.8,10.4,23.3,23.3,23.3h94.5l81.2,13.5c4.1,0.7,7,4.2,7,8.3v2.9H469c-4.1,0-7.4,3.3-7.4,7.4
			v23.8c0,12.8,10.4,23.3,23.3,23.3h8.4L493.2,304.2L493.2,304.2z M493.2,249.3h-8.4c-4.6,0-8.4-3.8-8.4-8.4v-16.4h16.9v24.8H493.2z
			"/>
	</g>
</g>
<g>
	<g>
		<path class="st0" d="M389.7,209.7h-95.1c-4.1,0-7.4,3.3-7.4,7.4s3.3,7.4,7.4,7.4h95.1c4.1,0,7.4-3.3,7.4-7.4
			S393.8,209.7,389.7,209.7z"/>
	</g>
</g>
<g>
	<g>
		<path class="st0" d="M437.2,209.7h-15.8c-4.1,0-7.4,3.3-7.4,7.4s3.3,7.4,7.4,7.4h15.8c4.1,0,7.4-3.3,7.4-7.4
			S441.3,209.7,437.2,209.7z"/>
	</g>
</g>
<g>
	<g>
		<path class="st0" d="M221.3,208.7H39.1c-4.1,0-7.4,3.3-7.4,7.4s3.3,7.4,7.4,7.4h182.2c4.1,0,7.4-3.3,7.4-7.4
			S225.4,208.7,221.3,208.7z"/>
	</g>
</g>
</svg>
