<?xml version="1.0" encoding="utf-8"?>
<!-- Generator: Adobe Illustrator 16.0.0, SVG Export Plug-In . SVG Version: 6.00 Build 0)  -->
<!DOCTYPE svg PUBLIC "-//W3C//DTD SVG 1.1//EN" "http://www.w3.org/Graphics/SVG/1.1/DTD/svg11.dtd">
<svg version="1.1" id="Capa_1" xmlns="http://www.w3.org/2000/svg" xmlns:xlink="http://www.w3.org/1999/xlink" x="0px" y="0px"
	 width="100px" height="100px" viewBox="0 0 100 100" enable-background="new 0 0 100 100" xml:space="preserve">
<g>
	<path fill="#FFFFFF" d="M7.087,10.448c0-5.5,3.897-7.75,8.66-5l68.504,39.553c4.763,2.75,4.763,7.25,0,10L15.747,94.552
		c-4.763,2.75-8.66,0.5-8.66-5L7.087,10.448z"/>
</g>
<path fill-rule="evenodd" clip-rule="evenodd" fill="#FFFFFF" d="M6.603,49.91c0-13.767-0.003-27.533,0.006-41.3
	c0.001-0.951,0.001-1.917,0.163-2.849c0.711-4.09,3.768-5.809,7.669-4.329c0.774,0.295,1.516,0.698,2.236,1.113
	C40.73,16.422,64.784,30.301,88.828,44.197c6.111,3.534,6.093,8.141-0.045,11.687c-23.993,13.862-47.99,27.721-72.009,41.54
	c-1.266,0.73-2.695,1.358-4.122,1.584c-2.933,0.467-4.995-1.016-5.693-3.898c-0.277-1.14-0.34-2.356-0.343-3.539
	C6.594,77.684,6.603,63.798,6.603,49.91z"/>
</svg>
