<?xml version="1.0" encoding="utf-8"?>
<!-- Generator: Adobe Illustrator 24.0.2, SVG Export Plug-In . SVG Version: 6.00 Build 0)  -->
<svg version="1.1" id="Layer_1" xmlns="http://www.w3.org/2000/svg" xmlns:xlink="http://www.w3.org/1999/xlink" x="0px" y="0px"
	 viewBox="0 0 512 400" style="enable-background:new 0 0 512 400;" xml:space="preserve">
<style type="text/css">
	.st0{fill:#202C54;}
</style>
<path class="st0" d="M487,203.1H455l-27.2-73.2h3.7c8.7,0,15.7-7,15.7-15.7c0-8.7-7-15.7-15.7-15.7c0,0,0,0,0,0h-60l-4-10.9
	c-0.8-2.2-3-3.7-5.3-3.7h-11.9v-5.2c0-3.1-2.5-5.7-5.7-5.7h-23.8c-3.1,0-5.7,2.5-5.7,5.7v5.2H212.6v-5.2c0-3.1-2.5-5.7-5.7-5.7
	h-23.8c-3.1,0-5.7,2.5-5.7,5.7v165.9h-6.7V115.9c0-3.1-2.5-5.7-5.7-5.7h-30.8v-7.5c0-3.1-2.5-5.7-5.7-5.7s-5.7,2.5-5.7,5.7v7.5H91.1
	c-17.9-0.1-33.5,12.3-37.4,29.8l-2.6,11c-0.6-0.1-1.2-0.1-1.8-0.1h-5.8c-8.7,0-15.7,7-15.7,15.7v20.6c0,7,4.7,13.2,11.4,15.1
	l-9.3,35.8c-0.1,0.5-0.2,0.9-0.2,1.4v52.7c-6,0.9-10.4,6-10.4,12v37c0,6.7,5.5,12.2,12.2,12.2h33.4c3.1,0,5.7-2.5,5.7-5.7V341
	c0-14.6,5.5-28.6,15.3-39.3l0,0c21.7-23.5,58.3-25.1,81.9-3.4c11.9,11,18.7,26.5,18.7,42.7v6.9c0,3.1,2.5,5.7,5.7,5.7
	s5.7-2.5,5.7-5.7V341c0-4-0.3-7.9-1-11.8h8.3v10.9c0,7.4,6,13.5,13.5,13.5h40c7.4,0,13.5-6,13.5-13.5v-10.9h7.4
	c-0.7,3.9-1,7.9-1,11.8v6.9c0,3.1,2.5,5.7,5.7,5.7s5.7-2.5,5.7-5.7V341c0-32,25.9-58,58-58c18.2,0,35.3,8.5,46.3,23.1
	c7.6,10,11.7,22.3,11.7,34.9v6.9c0,3.1,2.5,5.7,5.7,5.7c3.1,0,5.7-2.5,5.7-5.7V341c0-5-0.5-10.1-1.6-15c0.8,2.4,2.9,4,5.4,4h55.9
	c3.1,0,5.7-2.5,5.7-5.7v-45.6c0-0.7-0.1-1.3-0.4-2l-7.1-19.3l17.3-46.6c1.1-2.9-0.4-6.2-3.4-7.3C488.4,203.3,487.7,203.1,487,203.1
	L487,203.1z M64.8,142.6c2.8-12.3,13.7-21,26.3-21h10.8v70H64.4c0.4-1.4,0.6-2.9,0.6-4.4v-20.6c0-3.6-1.3-7.1-3.5-9.9L64.8,142.6z
	 M39.1,187.2v-20.6c0-2.4,1.9-4.3,4.3-4.3h5.8c2.4,0,4.3,2,4.3,4.3v20.6c0,2.4-1.9,4.3-4.3,4.3h-5.8
	C41.1,191.6,39.1,189.6,39.1,187.2z M59.1,341v1.2H31.5c-0.4,0-0.8-0.4-0.8-0.8v-37c0-0.4,0.4-0.8,0.8-0.8h38.6
	C62.9,314.7,59.1,327.7,59.1,341z M159.3,233.8h-28.9c-3.1,0-5.7,2.5-5.7,5.7c0,3.1,2.5,5.7,5.7,5.7h28.9v33.7
	c-26.8-13.3-59-7.9-80.1,13.3H58.9c2.9-26.7,25.5-47,52.4-47c3.1,0,5.7-2.5,5.7-5.7c0-3.1-2.5-5.7-5.7-5.7
	c-33.2,0-60.8,25.4-63.8,58.4h-6.4v-51.9l9.7-37.3h108.5V233.8z M159.3,191.6h-46v-70h46V191.6z M326.5,84.3h12.4v160.2h-12.4V84.3z
	 M212.6,95.1h102.5v149.4H212.6V95.1z M297.5,255.9l-9.4,14.8h-10.1l9.4-14.8H297.5z M273.8,255.9l-9.4,14.8h-10.2l9.4-14.8H273.8z
	 M250.2,255.9l-9.4,14.8h-10.1l9.4-14.8H250.2z M216.4,255.9h10.1l-9.4,14.8H207L216.4,255.9z M188.8,84.3h12.4v160.2h-12.4V84.3z
	 M192.8,255.9H203l-9.4,14.8h-10.1L192.8,255.9z M170.7,255.9h8.7l-8.6,13.6L170.7,255.9z M260.6,340.1c0,1.1-0.9,2.1-2.1,2.1h-40
	c-1.1,0-2.1-0.9-2.1-2.1v-36.9c0-1.1,0.9-2.1,2.1-2.1h40c1.1,0,2.1,0.9,2.1,2.1V340.1z M282.5,317.8H272v-14.6
	c0-7.4-6-13.5-13.5-13.5h-40c-7.4,0-13.5,6-13.5,13.5v14.6h-11.3c-4.5-12.6-12.5-23.7-23.1-31.8v-3.8h140.6
	C297.9,290.4,287.8,303,282.5,317.8z M311.7,270.8h-10.1l9.4-14.8h10.1L311.7,270.8z M335.3,270.8h-10.1l9.4-14.8h10.1L335.3,270.8z
	 M431.5,109.8c2.4,0,4.3,2,4.4,4.3c0,2.4-2,4.3-4.4,4.4h-52.7l-3.2-8.7L431.5,109.8z M358.9,270.8h-10.1l9.4-14.8h10.1L358.9,270.8z
	 M372.4,270.8l9.4-14.8H392l-9.4,14.8H372.4z M399.3,294.6c-0.8-0.9-1.6-1.8-2.5-2.6c-3.7-3.7-7.9-7-12.4-9.8H414L399.3,294.6z
	 M396,270.8l9.4-14.8h9.8v0.5l-9.1,14.3L396,270.8z M406.3,303.7l9-7.7v28.3c0,0.3,0,0.5,0.1,0.8
	C413.6,317.5,410.5,310.2,406.3,303.7L406.3,303.7z M426.6,318.6L426.6,318.6v-14.9h9.4L426.6,318.6z M448.4,318.6h-8.2l9.4-14.8
	h8.2L448.4,318.6z M471.2,318.6h-9.3l9.3-14.7V318.6z M471.2,292.4h-44.6v-42.1c0,0,0-0.1,0-0.1c0-0.1,0-0.2,0-0.4
	c0-0.1,0-0.2,0-0.2c0-0.1,0-0.2,0-0.3c0-0.1,0-0.2-0.1-0.3c0-0.1,0-0.2-0.1-0.2c0-0.1-0.1-0.2-0.1-0.3c0,0,0-0.1,0-0.1l-26.6-72.6
	c-1.1-2.9-4.4-4.4-7.3-3.3c-2.9,1.1-4.4,4.3-3.4,7.2l23.8,65h-62.5V95.1h7.9l23.5,64.2c1.1,3,4.3,4.5,7.3,3.4c3-1.1,4.5-4.3,3.4-7.3
	l-9.3-25.5h32.6l55.5,149.8L471.2,292.4z M469,241l-9.8-26.5h19.7L469,241z"/>
<path class="st0" d="M152.9,299.7c-23.4-13.5-53.3-5.5-66.8,17.9c-13.5,23.4-5.5,53.3,17.9,66.8s53.3,5.5,66.8-17.9
	c8.7-15.1,8.7-33.8,0-48.9C166.5,310.2,160.4,304,152.9,299.7z M161,360.8c-10.4,17.9-33.3,24.1-51.3,13.7
	c-17.9-10.4-24.1-33.3-13.7-51.3c10.4-17.9,33.3-24.1,51.3-13.7c11.6,6.7,18.8,19.1,18.8,32.5C166,348.7,164.3,355.1,161,360.8
	L161,360.8z"/>
<path class="st0" d="M128.5,316c-14.4,0-26.1,11.7-26.1,26.1s11.7,26.1,26.1,26.1c14.4,0,26.1-11.7,26.1-26.1l0,0
	C154.6,327.7,142.9,316,128.5,316z M128.5,356.8c-8.1,0-14.7-6.6-14.7-14.7s6.6-14.7,14.7-14.7c8.1,0,14.7,6.6,14.7,14.7l0,0
	C143.2,350.2,136.6,356.8,128.5,356.8L128.5,356.8z"/>
<path class="st0" d="M372.3,299.7c-23.4-13.5-53.3-5.5-66.8,17.9c-13.5,23.4-5.5,53.3,17.9,66.8c23.4,13.5,53.3,5.5,66.8-17.9
	c4.3-7.4,6.6-15.9,6.6-24.5C396.7,324.6,387.4,308.5,372.3,299.7z M347.8,379.6c-20.7,0-37.5-16.8-37.5-37.5
	c0-20.7,16.8-37.5,37.5-37.5c20.7,0,37.5,16.8,37.5,37.5c0,0,0,0,0,0C385.2,362.8,368.5,379.5,347.8,379.6z"/>
<path class="st0" d="M347.8,316c-14.4,0-26.1,11.7-26.1,26.1s11.7,26.1,26.1,26.1c14.4,0,26.1-11.7,26.1-26.1l0,0
	C373.9,327.7,362.2,316,347.8,316z M347.8,356.8c-8.1,0-14.7-6.6-14.7-14.7s6.6-14.7,14.7-14.7c8.1,0,14.7,6.6,14.7,14.7l0,0
	C362.5,350.2,355.9,356.8,347.8,356.8L347.8,356.8z"/>
</svg>
