<?xml version="1.0" encoding="utf-8"?>
<!-- Generator: Adobe Illustrator 24.0.2, SVG Export Plug-In . SVG Version: 6.00 Build 0)  -->
<svg version="1.1" id="Capa_1" xmlns="http://www.w3.org/2000/svg" xmlns:xlink="http://www.w3.org/1999/xlink" x="0px" y="0px"
	 viewBox="0 0 512 512" style="enable-background:new 0 0 512 512;" xml:space="preserve">
<style type="text/css">
	.st0{fill:none;stroke:#202C54;stroke-width:12;stroke-miterlimit:10;}
	.st1{fill:none;stroke:#202C54;stroke-width:12;stroke-linecap:round;stroke-linejoin:round;stroke-miterlimit:10;}
</style>
<line class="st0" x1="326.8" y1="322.9" x2="326.8" y2="353.9"/>
<path class="st0" d="M312,357.5h59.8v-38.2h-81.3V336C290.5,347.9,300.2,357.5,312,357.5z"/>
<path class="st0" d="M39,189.9h36.3c0,0,25.7-0.7,34.7,20.9c3.9,9.2,8.1,19.4,12,28.6"/>
<path class="st0" d="M128.9,240.2h-19.4c-5.8,0-10.4,4.6-10.4,10.4V269h40.2v-18.4C139.3,244.8,134.7,240.2,128.9,240.2z"/>
<line class="st0" x1="35.6" y1="269" x2="139.3" y2="269"/>
<path class="st0" d="M378.6,432.8h-73.5v-25c0-7.6,6.2-13.9,13.9-13.9h59.6V432.8z"/>
<line class="st0" x1="304.4" y1="421" x2="270" y2="421"/>
<line class="st0" x1="142.4" y1="421" x2="115" y2="421"/>
<path class="st0" d="M98.4,421H35.6V156.6h51.6c0,0,36.5-1,49.4,29.6c15.2,36.1,34.5,82.8,34.5,82.8l157.9,11.2
	c0,0,42.9,1.8,42.9,39.1s0,74.6,0,74.6"/>
<circle class="st0" cx="206.4" cy="428.7" r="62.1"/>
<circle class="st0" cx="206.4" cy="428.7" r="27.7"/>
<path class="st0" d="M459.6,202.6l-10.7-58c-2.7-15-17.3-25.1-32.2-22.3l0,0c-15,2.7-25.1,17.3-22.3,32.2l4.7,26.1
	c2,11.2,12.9,18.8,24.2,16.8l1.7,7.7"/>
<path class="st0" d="M446.1,367.9h-7.7c-17.2,0-31.2-14.1-31.2-31.2v-56.4"/>
<line class="st0" x1="474.1" y1="299.2" x2="474.1" y2="367.9"/>
<path class="st0" d="M407.1,253.6v-22.5c0-15.3,12.5-27.7,27.7-27.7h18.4c11.4,0,20.8,9.4,20.8,20.8v61.8"/>
<polyline class="st0" points="474.1,367.9 474.1,445 438.6,445 438.6,367.9 "/>
<path class="st0" d="M474.1,490.3h-65.7v-3c0-11.5,9.3-20.8,20.8-20.8h44.9V490.3z"/>
<rect x="438.6" y="444.8" class="st0" width="35.5" height="21.8"/>
<path class="st0" d="M407.1,254.3h-58.2c-9.8,0-17.7,8-17.7,17.7v8.3h76"/>
<path class="st0" d="M402.6,254.3h12.6c3.8,0,8.3-3.1,10-6.9l5.5-12.3"/>
<path class="st0" d="M400.1,280.4h21.4c9.8,0,21.3-8,25.7-17.7l1.9-4.2"/>
<line class="st0" x1="366.1" y1="254.3" x2="366.1" y2="280.4"/>
<line class="st0" x1="258.9" y1="227.3" x2="270.1" y2="276.7"/>
<line class="st1" x1="394.9" y1="157.2" x2="472.7" y2="143.5"/>
<path class="st0" d="M212.1,271.5l100.5-85.8c2.6-2.2,5.9-3.5,9.4-3.5c4.2,0,8.3,1.9,11,5.1l6.4,7.5l7.5-6.4l7.3-6.2l7.5-6.4
	l-6.5-7.4c-8.3-9.8-20.4-15.3-33.3-15.3c-10.4,0-20.4,3.7-28.3,10.4L173.9,265.6"/>
</svg>
