<?xml version="1.0" encoding="utf-8"?>
<!-- Generator: Adobe Illustrator 24.0.2, SVG Export Plug-In . SVG Version: 6.00 Build 0)  -->
<svg version="1.1" id="Capa_1" xmlns="http://www.w3.org/2000/svg" xmlns:xlink="http://www.w3.org/1999/xlink" x="0px" y="0px"
	 viewBox="0 0 512 400" style="enable-background:new 0 0 512 400;" xml:space="preserve">
<style type="text/css">
	.st0{fill:#202C54;}
</style>
<g>
	<path class="st0" d="M405,291c-18.3,0-33.1,14.9-33.1,33.1s14.9,33.1,33.1,33.1s33.1-14.9,33.1-33.1S423.3,291,405,291z M405,342.3
		c-10,0-18.1-8.1-18.1-18.1s8.1-18.1,18.1-18.1s18.1,8.1,18.1,18.1C423.1,334.1,415,342.3,405,342.3z"/>
	<path class="st0" d="M85.3,291c-18.3,0-33.1,14.9-33.1,33.1s14.9,33.1,33.1,33.1s33.1-14.9,33.1-33.1S103.6,291,85.3,291z
		 M85.3,342.3c-10,0-18.1-8.1-18.1-18.1s8.1-18.1,18.1-18.1s18.1,8.1,18.1,18.1C103.4,334.1,95.3,342.3,85.3,342.3z"/>
</g>
<path class="st0" d="M467.5,250.5L467.5,250.5L467.5,250.5z"/>
<path class="st0" d="M26.8,329.9L26.8,329.9L26.8,329.9z"/>
<path class="st0" d="M502.7,305.6L502.7,305.6L502.7,305.6z"/>
<path class="st0" d="M502.7,305.6L502.7,305.6L502.7,305.6v-23.2c0-24-16.8-44.6-40.3-49.4L388,217.8c-0.6-0.1-1.2-0.3-1.7-0.4
	c-2.2-8.9-10.2-15.5-19.8-15.5h-0.3L352,185.1c-2.7-3.2-7.4-3.6-10.6-0.9s-3.6,7.4-0.9,10.6l7.2,8.6c-3,1.2-5.7,3.1-7.7,5.4
	l-18.4-20.9c-9-10.6-20.5-17.8-33.4-20.7c-24.1-5.6-82.7-5-110.4-3.4c-6.3,0.4-11.8,0.8-16.5,1.1c-9.1,0.8-35.4,0.8-49.1,28.6
	c-3.8,7.5-6,12.1-7.6,15.5c-1.3,2.7-2.1,4.4-2.9,5.8c-1.8,3.2-1.8,7.1,0.1,10.3c1.4,2.4,3.6,4,6.2,4.7v20.8c0,3.2,2,6,5,7.1
	c25.8,9.2,36.8,32.1,41.3,46.2h-13.7c-8.4-23.1-30.5-38.6-55.2-38.6c-24.8,0-46.8,15.5-55.2,38.6h-7.9l-1.8-6.6
	c-1.1-3.9-1.6-7.9-1.6-11.9v-5.1h7.5c11.2,0,20.4-9.1,20.4-20.4v-6.6c0-10.7-8.2-19.4-18.6-20.3c3.2-4.4,8.3-7,13.9-7H65
	c11.6,0,22.3-6.2,28-16.3c0.1-0.1,0.1-0.3,0.2-0.4l9.9-20.2c9.2-18.8,27.1-31.2,47.8-33.3c23.1-2.3,48.5-3.2,71.7-3.1
	c15,0.1,29.4,0.6,41.9,1.5c0.2,0,0.3,0,0.5,0c20.7,1.6,35.9,3.3,52.6,16.2c3.3,2.5,8,1.9,10.5-1.4s1.9-8-1.4-10.5
	c-17.6-13.6-33-16.7-54.1-18.7l-15-1.1c-8.4-0.5-17.6-0.8-27.3-0.9l-15-0.1c-8.9,0-18.1,0.2-27.3,0.6l-15,0.7
	c-8,0.5-15.9,1.1-23.6,1.9c-25.9,2.6-48.2,18.2-59.7,41.6l-9.8,20c-3.1,5.3-8.7,8.5-14.8,8.5H41.9c-11,0-21.1,5.5-27.1,14.8
	c-5,8.6-11.1,17.2-11.1,34.9v24.7c0,5.3,0.7,10.7,2.1,15.8l1.5,5.4c-4.4,2.9-7.4,8-7.4,13.7v8.1c0,9.1,7.4,16.4,16.4,16.4h13.9
	c8.4,22.2,29.9,38,55,38s46.6-15.8,55-38h74.6c4.1,0,7.5-3.4,7.5-7.5s-3.4-7.5-7.5-7.5h-71.1c0.4-3.9,0.4-7.6,0.1-11h202.6
	c-0.3,3.4-0.3,7.2,0.1,11h-96.6c-4.1,0-7.5,3.4-7.5,7.5s3.4,7.5,7.5,7.5H350c8.4,22.2,29.9,38,55,38s46.6-15.8,55-38h35.6
	c9.1,0,16.4-7.4,16.4-16.4v-8.1C512,313.9,508.2,308.3,502.7,305.6z M20.6,247.9h5.7c3,0,5.4,2.4,5.4,5.4v6.6c0,3-2.4,5.4-5.4,5.4
	h-7.5C18.9,262.6,18.1,256.3,20.6,247.9z M26.8,329.9L26.8,329.9H16.4c-0.8,0-1.4-0.6-1.4-1.4v-8.1c0-0.8,0.6-1.4,1.4-1.4h10.3
	C26.4,322.5,26.4,326.2,26.8,329.9L26.8,329.9z M85.3,367.9c-24.3,0-43.8-19.9-43.8-43.8c0-24.1,19.6-43.8,43.8-43.8
	s43.8,19.7,43.8,43.8C129.1,348.1,109.6,367.9,85.3,367.9z M467.5,250.5L467.5,250.5c9.5,4.6,16.5,13.2,19.1,23.4h-13.3
	c-3.2,0-5.8-2.6-5.8-5.8L467.5,250.5C467.5,250.5,467.5,250.5,467.5,250.5L467.5,250.5z M349.8,222.3c0-3,2.4-5.4,5.4-5.4h11.3
	c3,0,5.4,2.4,5.4,5.4v0.4v10.9c0,3-2.4,5.4-5.4,5.4h-11.3c-3,0-5.4-2.4-5.4-5.4V222.3z M239.9,177.9c20.7,0.6,37.2,2.1,44.9,3.9
	c9.7,2.2,18.5,7.7,25.4,15.9l0,0l0.1,0.1l15.4,17.4h-85.8L239.9,177.9L239.9,177.9z M159.2,180.1c20.1-1.8,43-2.7,65.6-2.5v37.5
	h-65.6L159.2,180.1L159.2,180.1L159.2,180.1z M125.5,200.2L125.5,200.2c4-8.2,10.7-14.2,18.7-17.4v32.3h-26.1
	C119.7,211.9,121.9,207.4,125.5,200.2z M239.9,304L239.9,304h-15h-55c-4.1-15.2-15.9-44.8-46.9-58.4v-15.4h102h15
	c100.3,0,94.2,0,94.9,0V268l-20,36H239.9z M405,367.9c-24.4,0-43.8-19.9-43.8-43.8c0-24.2,19.7-43.8,43.8-43.8
	c24.1,0,43.8,19.7,43.8,43.8C448.8,348.1,429.3,367.9,405,367.9z M405,265.3c-24.7,0-46.8,15.4-55.2,38.6H332l16.9-30.4
	c0.6-1.1,0.9-2.4,0.9-3.6v-16.7c1.7,0.5,3.5,0.7,5.4,0.7h11.3c11.2,0,20.4-9.1,20.4-20.4v-0.7l65.7,13.4V268
	c0,11.5,9.3,20.8,20.8,20.8h14.4V304h-27.5C451.7,280.6,429.5,265.3,405,265.3z M497,328.5c0,0.8-0.6,1.4-1.4,1.4h-32.1
	c0.4-3.7,0.4-7.4,0.1-11h31.6h0.4c0.8,0,1.4,0.6,1.4,1.4V328.5z"/>
<g>
	<g>
		<path class="st0" d="M199.2,286.1c-0.9,0-1.5-0.6-1.5-1.5v-27h-7.4c-0.9,0-1.5-0.6-1.5-1.5v-5.3c0-0.9,0.6-1.5,1.5-1.5h23.8
			c0.9,0,1.5,0.6,1.5,1.5v5.3c0,0.9-0.6,1.5-1.5,1.5h-7.4v27c0,0.9-0.6,1.5-1.5,1.5H199.2z"/>
		<path class="st0" d="M214.2,250.4c0.3,0,0.5,0.2,0.5,0.5v5.3c0,0.3-0.2,0.5-0.5,0.5h-7.9c-0.3,0-0.5,0.2-0.5,0.5v27.5
			c0,0.3-0.2,0.5-0.5,0.5h-6.1c-0.3,0-0.5-0.2-0.5-0.5v-27.5c0-0.3-0.2-0.5-0.5-0.5h-7.9c-0.3,0-0.5-0.2-0.5-0.5v-5.3
			c0-0.3,0.2-0.5,0.5-0.5H214.2 M214.2,248.4h-23.8c-1.4,0-2.5,1.1-2.5,2.5v5.3c0,1.4,1,2.5,2.5,2.5h6.4v26c0,1.4,1,2.5,2.5,2.5h6.1
			c1.4,0,2.5-1.1,2.5-2.5v-26h6.4c1.4,0,2.5-1.1,2.5-2.5v-5.3C216.7,249.4,215.6,248.4,214.2,248.4L214.2,248.4z"/>
	</g>
	<g>
		<path class="st0" d="M238.8,286.1c-0.8,0-1.3-0.4-1.6-1.1l-2.5-8.2h-10.9l-2.5,8.1c-0.2,0.7-0.8,1.2-1.6,1.2h-6.3
			c-1,0-1.4-0.7-1.4-1.3v-0.2l9.9-31.8c0.6-2,1.9-2.7,2.8-3c1.1-0.4,2.6-0.5,4.5-0.5c2,0,3.5,0.2,4.6,0.5c1,0.3,2.2,1.1,2.8,3
			l9.8,31.8v0.2c0,0.7-0.6,1.3-1.3,1.3H238.8z M232,268.2l-2.8-9.1l-2.8,9.1H232z"/>
		<path class="st0" d="M229.2,250.4c1.8,0,3.3,0.2,4.3,0.5c1.1,0.3,1.8,1.1,2.2,2.4l9.7,31.6c0,0.2-0.1,0.3-0.3,0.3h-6.4
			c-0.3,0-0.5-0.1-0.6-0.4l-2.6-8.4c-0.1-0.3-0.3-0.5-0.6-0.5h-11.4c-0.3,0-0.5,0.2-0.6,0.5l-2.6,8.3c-0.1,0.3-0.3,0.5-0.6,0.5h-6.3
			c-0.3,0-0.4-0.1-0.4-0.3l9.8-31.6c0.4-1.3,1.1-2.1,2.1-2.4C226,250.5,227.4,250.4,229.2,250.4 M225.6,269.2h7.2
			c0.3,0,0.4-0.1,0.4-0.3v-0.1v-0.1l-3.4-11.1c-0.1-0.4-0.2-0.6-0.2-0.7c-0.1-0.1-0.2-0.2-0.3-0.2c-0.2,0-0.3,0.3-0.5,0.9l-3.4,11.1
			c0,0.1,0,0.1,0,0.1v0.1C225.2,269.1,225.4,269.2,225.6,269.2 M229.2,248.4c-2,0-3.6,0.2-4.8,0.6s-2.7,1.3-3.4,3.7l-9.8,31.6
			l-0.1,0.3v0.3c0,1.3,1,2.3,2.4,2.3h6.3c1.2,0,2.2-0.8,2.5-1.9l2.3-7.4h9.4l2.3,7.5c0.4,1.2,1.4,1.9,2.5,1.9h6.4
			c1.3,0,2.3-1,2.3-2.3v-0.3l-0.1-0.3l-9.7-31.6c-0.7-2.4-2.3-3.3-3.5-3.7C232.9,248.5,231.3,248.4,229.2,248.4L229.2,248.4z
			 M227.8,267.2l1.4-4.6l1.4,4.6H227.8L227.8,267.2z"/>
	</g>
	<g>
		<path class="st0" d="M268.7,286.1c-0.2,0-0.5,0-0.7-0.1c-0.4-0.1-0.8-0.4-1.1-0.9l-4.4-8.5l-4.4,8.4c-0.2,0.3-0.5,0.8-1.1,1
			c-0.2,0-0.4,0.1-0.7,0.1h-5.4c-0.3,0-0.6,0-0.8-0.1c-0.6-0.1-1-0.6-1-1.3c0-0.3,0.1-0.5,0.3-0.9l8.1-15.9c0,0,0.1-0.1,0.1-0.2
			s-0.1-0.2-0.1-0.2l-8.1-15.9c-0.2-0.4-0.3-0.7-0.3-0.9c0-0.7,0.4-1.2,1-1.3c0.2,0,0.5-0.1,0.8-0.1h5.4c0.2,0,0.5,0,0.7,0.1
			c0.6,0.1,1,0.7,1.1,0.9l4.4,8.5l4.4-8.4c0.4-0.6,0.7-0.9,1.1-0.9c0.2,0,0.4-0.1,0.7-0.1h5.4c0.3,0,0.6,0,0.8,0.1
			c0.6,0.1,1,0.6,1,1.3c0,0.3-0.1,0.5-0.3,0.9l-8.1,15.9c0,0-0.1,0.1-0.1,0.2s0.1,0.1,0.1,0.2l0,0l8.1,15.9c0.2,0.5,0.3,0.7,0.3,0.9
			c0,0.7-0.4,1.2-1,1.3c-0.2,0-0.5,0.1-0.8,0.1h-5.4V286.1z"/>
		<path class="st0" d="M274.1,250.4c0.2,0,0.4,0,0.6,0c0.1,0,0.2,0.1,0.2,0.3c0,0.1-0.1,0.2-0.2,0.5l-8.1,15.8
			c-0.1,0.1-0.1,0.2-0.2,0.4c-0.1,0.1-0.1,0.3-0.1,0.3s0,0.2,0.1,0.3c0.1,0.2,0.2,0.3,0.2,0.4l8.1,15.8c0.1,0.3,0.2,0.4,0.2,0.5
			c0,0.2-0.1,0.3-0.2,0.3s-0.3,0-0.6,0h-5.4c-0.2,0-0.3,0-0.5,0c-0.1,0-0.3-0.2-0.5-0.4l-5-9.6c0-0.1-0.1-0.2-0.1-0.3
			c0-0.1-0.1-0.2-0.2-0.2s-0.1,0.1-0.2,0.2c0,0.1-0.1,0.2-0.1,0.3l-5,9.6c-0.2,0.3-0.3,0.4-0.5,0.4c-0.1,0-0.3,0-0.5,0h-5.4
			c-0.2,0-0.4,0-0.6,0c-0.1,0-0.2-0.1-0.2-0.3c0-0.1,0.1-0.2,0.2-0.5l8.1-15.8c0.1-0.1,0.1-0.2,0.2-0.4c0.1-0.2,0.1-0.3,0.1-0.3
			s0-0.2-0.1-0.3c-0.1-0.1-0.2-0.3-0.2-0.4l-8.1-15.8c-0.1-0.3-0.2-0.4-0.2-0.5c0-0.2,0.1-0.3,0.2-0.3s0.3,0,0.6,0h5.4
			c0.2,0,0.3,0,0.5,0s0.3,0.2,0.5,0.4l5,9.6c0,0.1,0.1,0.2,0.1,0.3c0,0.1,0.1,0.2,0.2,0.2s0.1-0.1,0.2-0.2s0.1-0.2,0.1-0.3l5-9.6
			c0.2-0.3,0.3-0.4,0.5-0.4c0.1,0,0.3,0,0.5,0H274.1 M274.1,248.4h-5.4c-0.3,0-0.6,0-0.9,0.1c-0.7,0.2-1.3,0.6-1.7,1.3v0.1v0.1
			l-3.5,6.7l-3.5-6.7v-0.1v-0.1c-0.5-0.7-1-1.2-1.7-1.3c-0.3-0.1-0.6-0.1-0.9-0.1h-5.4c-0.4,0-0.7,0-1,0.1c-1.1,0.2-1.8,1.2-1.8,2.3
			c0,0.5,0.2,1,0.4,1.4l8,15.6l-8,15.6c-0.3,0.5-0.4,0.9-0.4,1.4c0,1.1,0.7,2.1,1.8,2.3c0.3,0.1,0.6,0.1,1,0.1h5.4
			c0.3,0,0.6,0,0.9-0.1c0.7-0.1,1.3-0.6,1.7-1.3v-0.1v-0.1l3.5-6.7l3.5,6.7v0.1v0.1c0.5,0.7,1,1.2,1.7,1.3c0.3,0.1,0.6,0.1,0.9,0.1
			h5.4c0.4,0,0.7,0,1-0.1c1-0.2,1.8-1.1,1.8-2.3c0-0.5-0.2-0.9-0.4-1.4l-8-15.6l8-15.6c0.3-0.5,0.4-0.9,0.4-1.4
			c0-1.1-0.7-2.1-1.8-2.3C274.8,248.4,274.4,248.4,274.1,248.4L274.1,248.4z"/>
	</g>
	<g>
		<path class="st0" d="M281,286.1c-0.9,0-1.5-0.6-1.5-1.5v-33.8c0-0.9,0.6-1.5,1.5-1.5h6.1c0.9,0,1.5,0.6,1.5,1.5v33.8
			c0,0.9-0.6,1.5-1.5,1.5H281z"/>
		<path class="st0" d="M287,250.4c0.3,0,0.5,0.2,0.5,0.5v33.8c0,0.3-0.2,0.5-0.5,0.5h-6c-0.3,0-0.5-0.2-0.5-0.5v-33.8
			c0-0.3,0.2-0.5,0.5-0.5H287 M287,248.4h-6c-1.4,0-2.5,1.1-2.5,2.5v33.8c0,1.4,1.1,2.5,2.5,2.5h6.1c1.4,0,2.5-1.1,2.5-2.5v-33.8
			C289.5,249.4,288.4,248.4,287,248.4L287,248.4z"/>
	</g>
</g>
</svg>
