<?xml version="1.0" encoding="utf-8"?>
<!-- Generator: Adobe Illustrator 24.0.2, SVG Export Plug-In . SVG Version: 6.00 Build 0)  -->
<svg version="1.1" id="Capa_1" xmlns="http://www.w3.org/2000/svg" xmlns:xlink="http://www.w3.org/1999/xlink" x="0px" y="0px"
	 viewBox="0 0 185 89" style="enable-background:new 0 0 185 89;" xml:space="preserve">
<style type="text/css">
	.st0{clip-path:url(#SVGID_2_);}
	.st1{fill:#3DAE2B;}
	.st2{fill:#001F60;}
	.st3{fill:#FFFFFF;}
	.st4{clip-path:url(#SVGID_4_);}
	.st5{fill:#FEFEFE;}
	.st6{clip-path:url(#SVGID_6_);}
	.st7{fill:none;stroke:#FFFFFF;stroke-miterlimit:10;}
	.st8{clip-path:url(#SVGID_8_);}
	.st9{fill:#FBEA27;}
	.st10{fill:#050507;}
</style>
<g>
	<path class="st1" d="M0.77,22.26c0,0,8.44,11.33,15.15,29.52c6.02,16.31,6.82,31.16,7.12,33.43c0.15,1.16,0.26,2.2,1.51,2.8
		c0.69,0.33,2.09,0.66,3.48-0.79c6.16-6.41,30.13-31.91,70.17-54.15c39.12-21.73,74.56-28.93,86.02-31.07c0,0-0.43-0.53-1.06-0.87
		c-0.48-0.25-1.27-0.54-2.59-0.38c-7.95,0.93-16.04,2.51-23.95,4.11c-18.8,3.81-37.21,9.06-54.97,15.49
		C61.3,34.96,31.7,53.92,31.7,53.92s-5.38-9.28-12.47-18.41c-3.79-4.88-9.57-11.18-11.09-12.27C4.46,20.61,0.77,22.26,0.77,22.26z"
		/>
</g>
</svg>
