<?xml version="1.0" encoding="utf-8"?>
<!-- Generator: Adobe Illustrator 24.0.2, SVG Export Plug-In . SVG Version: 6.00 Build 0)  -->
<svg version="1.1" id="Capa_1" xmlns="http://www.w3.org/2000/svg" xmlns:xlink="http://www.w3.org/1999/xlink" x="0px" y="0px"
	 viewBox="0 0 512 400" style="enable-background:new 0 0 512 400;" xml:space="preserve">
<style type="text/css">
	.st0{fill:#45AD34;}
</style>
<g>
	<path class="st0" d="M464.6,264.9l-19.5-6.2v-58.1c0-9.2-7.5-16.7-16.7-16.7h-42.8c-3.6,0-6.4,2.9-6.4,6.4s2.9,6.4,6.4,6.4h42.8
		c2.1,0,3.9,1.7,3.9,3.9v9.1h-47.6c-13,0-23.6,10.6-23.6,23.6v12.9c0,13,10.6,23.6,23.6,23.6h53l23,7.3c1.1,0.4,1.9,1.4,1.9,2.6
		v10.1h-6.2c-3.6,0-6.4,2.9-6.4,6.4c0,3.6,2.9,6.4,6.4,6.4h6.2v8.3c0,1.5-1.2,2.7-2.7,2.7h-22.3c-8.4-18.5-26.9-30.8-47.7-30.8
		c-20.8,0-39.3,12.2-47.7,30.8h-18.6c0-29.8,0-54.6,0-84.6c0-17.7,14.4-32.2,32.2-32.2h4.2c3.6,0,6.4-2.9,6.4-6.4
		c0-3.6-2.9-6.4-6.4-6.4h-4.2c-24.8,0-45,20.2-45,45v11.2h-14c-7.2,0-13.1,5.9-13.1,13.1v36.5h-43v-10.4H251c2.2,0,4.2-1.1,5.4-2.9
		l69.5-104.3h7.2c5.2,0,10.1-2,13.8-5.5l19.2-18.2l29.1-8.8c2.7-0.8,4.6-3.3,4.6-6.2v-18.1c0-3.6-2.9-6.4-6.4-6.4h-36
		c-5.2,0-10.1,2-13.8,5.5L325.1,132h-86.3c-3.6,0-6.4,2.9-6.4,6.4c0,3.6,2.9,6.4,6.4,6.4h88.9c1.6,0,3.2-0.6,4.4-1.8l20.3-19.2
		c1.4-1.3,3.1-2,5-2H387v6.9l-26,7.9c-1,0.3-1.8,0.8-2.5,1.5l-20.3,19.2c-1.4,1.3-3.1,2-5,2c-6.9,0-215.8,0-236.1,0
		c-1.8,0-3.6,0.8-4.8,2.1l-29.8,33.1c-2.8,3.1-7.4,3.1-10.3,0.5c-3-2.7-3.2-7.3-0.5-10.3l33.9-37.6c1.4-1.5,3.3-2.4,5.4-2.4h122.1
		c3.6,0,6.4-2.9,6.4-6.4c0-3.6-2.9-6.4-6.4-6.4H90.6c-5.7,0-11.1,2.4-15,6.7l-33.9,37.6c-7.4,8.2-6.8,21,1.5,28.4
		c8.3,7.5,21,6.7,28.4-1.5l0.7-0.8l8.2,9.9v77.5H77c-13.5,0-25.7,7.4-32,19.3l-4.1,7.9c-1,2-1,4.4,0.2,6.3s3.3,3.1,5.5,3.1h38.1
		c-0.5,2.9-0.8,5.8-0.8,8.8c0,28.9,23.5,52.4,52.4,52.4s52.4-23.5,52.4-52.4c0-3-0.3-5.9-0.8-8.8h19.6v9.6c0,7.7,6.3,14,14,14h12.4
		c3.6,0,6.4-2.9,6.4-6.4c0-3.6-2.9-6.4-6.4-6.4h-12.5c-0.6,0-1.1-0.5-1.1-1.1v-9.6h73v9.6c0,0.6-0.5,1.1-1.1,1.1h-32.6
		c-3.6,0-6.4,2.9-6.4,6.4c0,3.6,2.9,6.4,6.4,6.4h32.6c7.7,0,14-6.3,14-14v-9.6H338c-0.5,2.9-0.8,5.8-0.8,8.8
		c0,28.9,23.5,52.4,52.4,52.4S442,364,442,335.1c0-3-0.3-5.9-0.8-8.8h18.4c8.6,0,15.5-7,15.5-15.5v-31.2
		C475.4,272.9,471.1,266.9,464.6,264.9L464.6,264.9z M373.9,246.2v-12.9c0-5.9,4.8-10.7,10.7-10.7h47.6V257h-47.6
		C378.7,256.9,373.9,252.1,373.9,246.2L373.9,246.2z M296.4,253.2c0-0.2,0.1-0.3,0.3-0.3h14v36.8h-14.3V253.2z M227.6,289.7h-65.2
		c-1.3-0.8-2.6-1.5-4-2.1v-8.3h69.2V289.7z M174.8,341.6h0.6c-1,6.1-3.4,11.8-6.9,16.6l-0.4-0.4c-2.5-2.5-6.6-2.5-9.1,0
		s-2.5,6.6,0,9.1l0.4,0.4c-4.8,3.5-10.5,5.9-16.6,6.9v-0.6c0-3.6-2.9-6.4-6.4-6.4s-6.4,2.9-6.4,6.4v0.6c-6.1-1-11.8-3.4-16.6-6.9
		l0.4-0.4c2.5-2.5,2.5-6.6,0-9.1s-6.6-2.5-9.1,0l-0.4,0.4c-3.5-4.8-5.9-10.5-6.9-16.6H98c3.6,0,6.4-2.9,6.4-6.4s-2.9-6.4-6.4-6.4
		h-0.6c1-6.1,3.4-11.8,6.9-16.6l0.4,0.4c2.5,2.5,6.6,2.5,9.1,0s2.5-6.6,0-9.1l-0.4-0.4c4.8-3.5,10.5-5.9,16.6-6.9v0.6
		c0,3.6,2.9,6.4,6.4,6.4s6.4-2.9,6.4-6.4v-0.6c6.1,1,11.8,3.4,16.6,6.9l-0.4,0.4c-2.5,2.5-2.5,6.6,0,9.1c1.3,1.3,2.9,1.9,4.5,1.9
		s3.3-0.6,4.5-1.9l0.4-0.4c3.5,4.8,5.9,10.5,6.9,16.6h-0.6c-3.6,0-6.4,2.9-6.4,6.4C168.4,338.7,171.2,341.6,174.8,341.6L174.8,341.6
		z M189.2,172.1l-53,87.6c-8-9.7-16-19.5-24.2-29.3l34.9-58.2L189.2,172.1L189.2,172.1z M246.6,172.1L190,266.4
		c-8.1,0-33.9,0-42.9,0l57.1-94.3L246.6,172.1L246.6,172.1z M133.8,276.9c1.2,1.5,3,2.3,5,2.3h6.8v4.3c-3-0.5-6.1-0.8-9.2-0.8
		c-7.5,0-14.6,1.6-21.1,4.4v-32.8L133.8,276.9z M247.3,266.4c-8.9,0-33.4,0-42.3,0l56.6-94.3h48.5L247.3,266.4z M99.5,172.1H132
		l-28.6,47.7c-8.3-10.1-14.9-18.1-22.4-27.2L99.5,172.1z M93.3,227.8l9,11v50.9h-9V227.8z M57.3,313.5c4.2-6.8,11.7-10.9,19.7-10.9
		h18.3c-2.7,3.3-4.9,7-6.7,10.9H57.3z M184.1,313.5c-1.8-3.9-4-7.6-6.7-10.9h133.3v10.9C295.3,313.5,197.3,313.5,184.1,313.5z
		 M428.3,341.6h0.6c-1,6.1-3.4,11.8-6.9,16.6l-0.4-0.4c-2.5-2.5-6.6-2.5-9.1,0s-2.5,6.6,0,9.1l0.4,0.4c-4.8,3.5-10.5,5.9-16.6,6.9
		v-0.6c0-3.6-2.9-6.4-6.4-6.4s-6.4,2.9-6.4,6.4v0.6c-6.1-1-11.8-3.4-16.6-6.9l0.4-0.4c2.5-2.5,2.5-6.6,0-9.1s-6.6-2.5-9.1,0
		l-0.4,0.4c-3.5-4.8-5.9-10.5-6.9-16.6h0.6c3.6,0,6.4-2.9,6.4-6.4s-2.9-6.4-6.4-6.4h-0.6c1-6.1,3.4-11.8,6.9-16.6l0.4,0.4
		c1.3,1.3,2.9,1.9,4.5,1.9s3.3-0.6,4.5-1.9c2.5-2.5,2.5-6.6,0-9.1l-0.4-0.4c4.8-3.5,10.5-5.9,16.6-6.9v0.6c0,3.6,2.9,6.4,6.4,6.4
		c3.6,0,6.4-2.9,6.4-6.4v-0.6c6.1,1,11.8,3.4,16.6,6.9l-0.4,0.4c-2.5,2.5-2.5,6.6,0,9.1c1.3,1.3,2.9,1.9,4.5,1.9s3.3-0.6,4.5-1.9
		l0.4-0.4c3.5,4.8,5.9,10.5,6.9,16.6h-0.6c-3.6,0-6.4,2.9-6.4,6.4S424.7,341.6,428.3,341.6L428.3,341.6z"/>
	<path class="st0" d="M389.8,314c-11.6,0-21.1,9.5-21.1,21.1s9.5,21.1,21.1,21.1s21.1-9.5,21.1-21.1S401.5,314,389.8,314z
		 M389.8,343.4c-4.6,0-8.3-3.7-8.3-8.3s3.7-8.3,8.3-8.3c4.6,0,8.3,3.7,8.3,8.3S394.4,343.4,389.8,343.4z"/>
	<path class="st0" d="M136.3,314c-11.6,0-21.1,9.5-21.1,21.1s9.5,21.1,21.1,21.1s21.1-9.5,21.1-21.1S148,314,136.3,314z
		 M136.3,343.4c-4.6,0-8.3-3.7-8.3-8.3s3.7-8.3,8.3-8.3s8.3,3.7,8.3,8.3S140.9,343.4,136.3,343.4z"/>
</g>
</svg>
